<svg width="301" height="390" viewBox="0 0 301 390" fill="none" xmlns="http://www.w3.org/2000/svg">
<path d="M0.127319 8C0.127319 3.58172 3.70904 0 8.12732 0H292.127C296.546 0 300.127 3.58172 300.127 8V390H0.127319V8Z" fill="#F1F3F7"/>
<rect x="126.897" y="171.769" width="46.4615" height="46.4615" rx="3.23077" fill="#F1F3F7" stroke="#6D758F" stroke-width="1.53846"/>
<mask id="mask0_1_878" style="mask-type:alpha" maskUnits="userSpaceOnUse" x="127" y="172" width="46" height="46">
<rect x="127.808" y="172.85" width="44.6131" height="44.6024" rx="4" fill="#E3EFFF"/>
</mask>
<g mask="url(#mask0_1_878)">
<line x1="158.948" y1="171" x2="158.948" y2="221.048" stroke="#B4B9C9" stroke-width="1.02564"/>
<line x1="167.256" y1="171" x2="167.256" y2="221.048" stroke="#B4B9C9" stroke-width="1.02564"/>
<line x1="150.64" y1="171" x2="150.64" y2="221.048" stroke="#B4B9C9" stroke-width="1.02564"/>
<line x1="134.025" y1="171" x2="134.025" y2="221.048" stroke="#B4B9C9" stroke-width="1.02564"/>
<line x1="142.332" y1="171" x2="142.332" y2="221.048" stroke="#B4B9C9" stroke-width="1.02564"/>
<line x1="125.103" y1="187.203" x2="175.151" y2="187.203" stroke="#B4B9C9" stroke-width="1.02564"/>
<line x1="125.103" y1="178.895" x2="175.151" y2="178.895" stroke="#B4B9C9" stroke-width="1.02564"/>
<line x1="125.103" y1="195.511" x2="175.151" y2="195.511" stroke="#B4B9C9" stroke-width="1.02564"/>
<line x1="125.103" y1="212.126" x2="175.151" y2="212.126" stroke="#B4B9C9" stroke-width="1.02564"/>
<line x1="125.103" y1="203.819" x2="175.151" y2="203.819" stroke="#B4B9C9" stroke-width="1.02564"/>
<rect x="127.539" y="172.535" width="45.0024" height="44.9916" rx="4" fill="url(#paint0_radial_1_878)"/>
</g>
<g filter="url(#filter0_d_1_878)">
<path d="M150.127 193.914C152.727 193.914 154.834 191.806 154.834 189.207C154.834 186.607 152.727 184.5 150.127 184.5C147.528 184.5 145.421 186.607 145.421 189.207C145.421 191.806 147.528 193.914 150.127 193.914Z" fill="white" stroke="#6D758F" stroke-width="1.23077" stroke-linecap="round" stroke-linejoin="round"/>
<path d="M142.665 205.5H157.59C159.243 205.5 160.517 204.078 159.745 202.616C158.609 200.464 156.019 197.896 150.127 197.896C144.236 197.896 141.646 200.464 140.51 202.616C139.737 204.078 141.011 205.5 142.665 205.5Z" fill="#B4B9C9" stroke="#6D758F" stroke-width="1.23077" stroke-linecap="round" stroke-linejoin="round"/>
</g>
<defs>
<filter id="filter0_d_1_878" x="135.663" y="180.885" width="28.929" height="30.2305" filterUnits="userSpaceOnUse" color-interpolation-filters="sRGB">
<feFlood flood-opacity="0" result="BackgroundImageFix"/>
<feColorMatrix in="SourceAlpha" type="matrix" values="0 0 0 0 0 0 0 0 0 0 0 0 0 0 0 0 0 0 127 0" result="hardAlpha"/>
<feOffset dy="1"/>
<feGaussianBlur stdDeviation="2"/>
<feComposite in2="hardAlpha" operator="out"/>
<feColorMatrix type="matrix" values="0 0 0 0 0.0969792 0 0 0 0 0.127894 0 0 0 0 0.2375 0 0 0 0.08 0"/>
<feBlend mode="normal" in2="BackgroundImageFix" result="effect1_dropShadow_1_878"/>
<feBlend mode="normal" in="SourceGraphic" in2="effect1_dropShadow_1_878" result="shape"/>
</filter>
<radialGradient id="paint0_radial_1_878" cx="0" cy="0" r="1" gradientUnits="userSpaceOnUse" gradientTransform="translate(150.04 195.03) rotate(90) scale(22.4958 22.5012)">
<stop stop-color="#F6FAFD" stop-opacity="0.28"/>
<stop offset="1" stop-color="#F6FAFD"/>
</radialGradient>
</defs>
</svg>
