<svg width="136" height="32" viewBox="0 0 136 32" fill="none" xmlns="http://www.w3.org/2000/svg">
<g clip-path="url(#clip0_1_284)">
<path d="M10.8427 6.86167C9.19633 6.86167 8.83047 7.58681 8.83047 9.03711V11.5751H13.0378L12.6719 15.7447H8.83047V28.2535H3.70852V15.7447H0.23291V11.5751H3.70852V9.03711C3.70852 4.86752 5.35486 2.69208 10.111 2.69208H13.0378V6.49909L10.8427 6.86167ZM13.4036 19.3704C13.4036 14.657 15.5988 11.2125 20.3549 11.2125C22.9158 11.2125 24.3793 12.4816 25.111 14.1131V11.5751H30.05V28.2535H25.111V25.7155C24.3793 27.347 22.7329 28.6161 20.3549 28.6161C15.5988 28.6161 13.4036 25.1716 13.4036 20.4582V19.3704ZM18.5256 20.4582C18.5256 22.9962 19.4402 24.6277 21.8183 24.6277C24.1963 24.6277 24.928 23.1775 24.928 20.8207V19.1892C24.928 16.8324 23.8305 15.3821 21.8183 15.3821C19.8061 15.3821 18.5256 17.0137 18.5256 19.5517V20.4582ZM40.6597 11.2125C42.6719 11.2125 44.5012 11.5751 45.5988 12.3003L44.5012 15.926C43.4116 15.4308 42.2242 15.1831 41.0256 15.2008C38.2817 15.2008 37.0012 16.8324 37.0012 19.5517V20.4582C37.0012 23.1775 38.2817 24.809 41.0256 24.809C42.2242 24.8268 43.4116 24.5791 44.5012 24.0839L45.5988 27.7096C44.5012 28.4348 42.6719 28.7973 40.6597 28.7973C34.6232 28.7973 31.8793 25.5342 31.8793 20.4582V19.733C31.8793 14.4757 34.6232 11.2125 40.6597 11.2125ZM46.1475 20.6394V19.1892C46.1475 14.4757 48.8914 11.3938 54.3793 11.3938C59.8671 11.3938 61.8793 14.4757 61.8793 19.1892V21.9085H51.2695C51.4524 24.2652 52.3671 25.1716 55.2939 25.1716C58.2207 25.1716 59.1353 24.809 60.7817 24.0839L61.6963 27.5283C60.4158 28.2535 57.6719 28.7973 55.111 28.7973C48.5256 28.6161 46.1475 25.5342 46.1475 20.6394ZM51.2695 18.464H57.489V18.1014C57.489 16.2886 56.7573 14.8383 54.5622 14.8383C52.3671 14.8383 51.2695 16.1073 51.2695 18.464ZM80.7207 20.4582C80.7207 25.1716 78.5256 28.6161 73.7695 28.6161C71.2085 28.6161 69.3792 27.347 68.8305 25.7155V28.2535H64.0744V3.23594L69.1963 2.69208V13.7506C69.928 12.3003 71.5744 11.0313 73.9524 11.0313C78.7085 11.0313 80.9036 14.4757 80.9036 19.1892L80.7207 20.4582ZM75.5988 19.3704C75.5988 17.0137 74.6841 15.2008 72.3061 15.2008C69.928 15.2008 69.0134 16.6511 69.0134 19.0079V20.8207C69.0134 23.1775 70.111 24.6277 72.3061 24.6277C74.5012 24.6277 75.5988 22.8149 75.5988 20.4582V19.3704ZM82.55 20.2769V19.3704C82.55 14.657 85.2939 11.0313 90.9646 11.0313C96.6354 11.0313 99.3793 14.4757 99.3793 19.3704V20.2769C99.3793 24.9903 96.6354 28.6161 90.9646 28.6161C85.2939 28.6161 82.55 25.1716 82.55 20.2769ZM94.2573 19.0079C94.2573 16.8324 93.3427 15.0196 90.9646 15.0196C88.5866 15.0196 87.6719 16.8324 87.6719 19.0079V20.6394C87.6719 22.8149 88.5866 24.6277 90.9646 24.6277C93.3427 24.6277 94.2573 22.8149 94.2573 20.6394V19.0079ZM100.843 20.2769V19.3704C100.843 14.657 103.587 11.0313 109.257 11.0313C114.928 11.0313 117.672 14.4757 117.672 19.3704V20.2769C117.672 24.9903 114.928 28.6161 109.257 28.6161C103.587 28.6161 100.843 25.1716 100.843 20.2769ZM112.55 19.0079C112.55 16.8324 111.635 15.0196 109.257 15.0196C106.879 15.0196 105.965 16.8324 105.965 19.0079V20.6394C105.965 22.8149 106.879 24.6277 109.257 24.6277C111.635 24.6277 112.55 22.8149 112.55 20.6394V19.0079ZM124.623 19.5517L129.562 11.5751H135.05L129.745 19.733L135.233 28.2535H129.928L124.623 20.0956V28.2535H119.501V3.23594L124.623 2.69208V19.5517Z" fill="#F5F6F7"/>
</g>
<defs>
<clipPath id="clip0_1_284">
<rect width="135" height="31" fill="white" transform="translate(0.23291 0.154053)"/>
</clipPath>
</defs>
</svg>
