<svg width="120" height="40" viewBox="0 0 120 40" fill="none" xmlns="http://www.w3.org/2000/svg">
<path d="M29.5135 13.8811H15.5027V18.0324H25.427C24.9405 23.8703 20.0757 26.3351 15.5027 26.3351C9.63243 26.3351 4.54054 21.7297 4.54054 15.2757C4.54054 8.98379 9.40541 4.15135 15.5027 4.15135C20.2054 4.15135 22.9946 7.16757 22.9946 7.16757L25.9135 4.15135C25.9135 4.15135 22.1838 0 15.373 0C6.71351 0 0 7.32973 0 15.2108C0 22.9622 6.32432 30.5189 15.6 30.5189C23.773 30.5189 29.7405 24.9081 29.7405 16.6378C29.7405 14.8865 29.5135 13.8811 29.5135 13.8811Z" fill="#9CB0C9"/>
<path d="M40.9616 10.8649C35.2211 10.8649 31.1022 15.373 31.1022 20.5946C31.1022 25.9135 35.0914 30.4865 41.0265 30.4865C46.4103 30.4865 50.7887 26.3676 50.7887 20.7243C50.8211 14.2054 45.6968 10.8649 40.9616 10.8649ZM41.0265 14.7243C43.8481 14.7243 46.54 16.9946 46.54 20.6919C46.54 24.2919 43.8806 26.6595 41.0265 26.6595C37.8806 26.6595 35.4157 24.1622 35.4157 20.6919C35.4157 17.2541 37.8481 14.7243 41.0265 14.7243Z" fill="#9CB0C9"/>
<path d="M62.4329 10.8649C56.6924 10.8649 52.5735 15.373 52.5735 20.5946C52.5735 25.9135 56.5627 30.4865 62.4978 30.4865C67.8816 30.4865 72.26 26.3676 72.26 20.7243C72.26 14.2054 67.1356 10.8649 62.4329 10.8649ZM62.4978 14.7243C65.3194 14.7243 68.0113 16.9946 68.0113 20.6919C68.0113 24.2919 65.3519 26.6595 62.4978 26.6595C59.3519 26.6595 56.887 24.1622 56.887 20.6919C56.8546 17.2541 59.3194 14.7243 62.4978 14.7243Z" fill="#9CB0C9"/>
<path d="M83.4489 10.8649C78.1624 10.8649 74.0435 15.4703 74.0435 20.6595C74.0435 26.5622 78.8435 30.4865 83.384 30.4865C86.1732 30.4865 87.6651 29.3838 88.7678 28.0865V30.0324C88.7678 33.4054 86.7245 35.4487 83.611 35.4487C80.6272 35.4487 79.1029 33.2108 78.584 31.9459L74.8218 33.5351C76.1516 36.3568 78.8435 39.3081 83.6435 39.3081C88.8975 39.3081 92.8867 36 92.8867 29.0919V11.4487H88.7678V13.1027C87.5029 11.773 85.7516 10.8649 83.4489 10.8649ZM83.8381 14.7243C86.4326 14.7243 89.0921 16.9297 89.0921 20.6919C89.0921 24.5189 86.4326 26.627 83.8056 26.627C80.984 26.627 78.3894 24.3568 78.3894 20.7243C78.357 16.9622 81.0813 14.7243 83.8381 14.7243Z" fill="#9CB0C9"/>
<path d="M111.146 10.8649C106.184 10.8649 102 14.8216 102 20.6595C102 26.8541 106.67 30.5189 111.632 30.5189C115.784 30.5189 118.346 28.2487 119.838 26.2054L116.432 23.9351C115.557 25.2973 114.065 26.627 111.632 26.627C108.876 26.627 107.611 25.1027 106.832 23.6432L120 18.1946L119.319 16.6054C118.054 13.4595 115.07 10.8649 111.146 10.8649ZM111.341 14.627C113.124 14.627 114.422 15.5676 114.973 16.7351L106.184 20.4C105.795 17.546 108.486 14.627 111.341 14.627Z" fill="#9CB0C9"/>
<path d="M100.054 1.00592H95.7402V29.9357H100.054V1.00592Z" fill="#9CB0C9"/>
</svg>
