<svg width="21" height="20" viewBox="0 0 21 20" fill="none" xmlns="http://www.w3.org/2000/svg">
<path d="M7.07346 10C7.07346 8.1591 8.56535 6.6664 10.4062 6.6664C12.2472 6.6664 13.7399 8.1591 13.7399 10C13.7399 11.8409 12.2472 13.3336 10.4062 13.3336C8.56535 13.3336 7.07346 11.8409 7.07346 10ZM5.27136 10C5.27136 12.836 7.57023 15.1349 10.4062 15.1349C13.2423 15.1349 15.5411 12.836 15.5411 10C15.5411 7.16397 13.2423 4.8651 10.4062 4.8651C7.57023 4.8651 5.27136 7.16397 5.27136 10ZM14.5443 4.66155C14.5443 5.32391 15.0815 5.86187 15.7447 5.86187C16.407 5.86187 16.945 5.32391 16.945 4.66155C16.945 3.99919 16.4078 3.46204 15.7447 3.46204C15.0815 3.46204 14.5443 3.99919 14.5443 4.66155ZM6.36586 18.1397C5.3909 18.0953 4.86102 17.933 4.50884 17.7956C4.04195 17.6139 3.70916 17.3974 3.35859 17.0477C3.00884 16.6979 2.79155 16.3651 2.61061 15.8982C2.47329 15.546 2.31094 15.0162 2.26651 14.0412C2.21804 12.9871 2.20835 12.6704 2.20835 10C2.20835 7.32956 2.21885 7.01373 2.26651 5.9588C2.31094 4.98384 2.4741 4.45477 2.61061 4.10178C2.79236 3.63489 3.00884 3.3021 3.35859 2.95153C3.70835 2.60178 4.04115 2.38449 4.50884 2.20355C4.86102 2.06624 5.3909 1.90388 6.36586 1.85945C7.41998 1.81099 7.73662 1.80129 10.4062 1.80129C13.0766 1.80129 13.3926 1.81179 14.4475 1.85945C15.4225 1.90388 15.9514 2.06704 16.3044 2.20355C16.7713 2.38449 17.1042 2.60178 17.4548 2.95153C17.8045 3.30129 18.021 3.63489 18.2027 4.10178C18.34 4.45396 18.5023 4.98384 18.5469 5.9588C18.5953 7.01373 18.6049 7.32956 18.6049 10C18.6049 12.6696 18.5953 12.9863 18.5469 14.0412C18.5023 15.0162 18.3393 15.546 18.2027 15.8982C18.021 16.3651 17.8045 16.6979 17.4548 17.0477C17.1049 17.3974 16.7713 17.6139 16.3044 17.7956C15.9522 17.933 15.4225 18.0953 14.4475 18.1397C13.3934 18.1882 13.0766 18.1979 10.4062 18.1979C7.73662 18.1979 7.41998 18.1882 6.36586 18.1397ZM6.28347 0.06058C5.21885 0.10905 4.49187 0.27787 3.85617 0.52504C3.19866 0.78029 2.64131 1.12278 2.08476 1.67851C1.52903 2.23425 1.18654 2.7916 0.93129 3.44992C0.68412 4.08562 0.5153 4.8126 0.46683 5.87722C0.41756 6.94346 0.40625 7.28433 0.40625 10C0.40625 12.7157 0.41756 13.0565 0.46683 14.1228C0.5153 15.1874 0.68412 15.9144 0.93129 16.5501C1.18654 17.2076 1.52822 17.7658 2.08476 18.3215C2.6405 18.8772 3.19785 19.2189 3.85617 19.475C4.49268 19.7221 5.21885 19.891 6.28347 19.9394C7.35052 19.9879 7.69058 20 10.4062 20C13.1228 20 13.4628 19.9887 14.5291 19.9394C15.5937 19.891 16.3207 19.7221 16.9564 19.475C17.6138 19.2189 18.1712 18.8772 18.7278 18.3215C19.2835 17.7658 19.6252 17.2076 19.8813 16.5501C20.1284 15.9144 20.298 15.1874 20.3456 14.1228C20.3941 13.0557 20.4055 12.7157 20.4055 10C20.4055 7.28433 20.3941 6.94346 20.3456 5.87722C20.2972 4.8126 20.1284 4.08562 19.8813 3.44992C19.6252 2.79241 19.2835 2.23506 18.7278 1.67851C18.1721 1.12278 17.6138 0.78029 16.9571 0.52504C16.3206 0.27787 15.5936 0.10824 14.5299 0.06058C13.4636 0.01212 13.1228 0 10.4071 0C7.69058 0 7.35052 0.01131 6.28347 0.06058Z" fill="#212121"/>
</svg>
