<svg width="21" height="21" viewBox="0 0 21 21" fill="none" xmlns="http://www.w3.org/2000/svg">
<path d="M7.07346 10.6797C7.07346 8.83879 8.56535 7.34609 10.4062 7.34609C12.2472 7.34609 13.7399 8.83879 13.7399 10.6797C13.7399 12.5206 12.2472 14.0133 10.4062 14.0133C8.56535 14.0133 7.07346 12.5206 7.07346 10.6797ZM5.27136 10.6797C5.27136 13.5157 7.57023 15.8146 10.4062 15.8146C13.2423 15.8146 15.5411 13.5157 15.5411 10.6797C15.5411 7.84366 13.2423 5.54479 10.4062 5.54479C7.57023 5.54479 5.27136 7.84366 5.27136 10.6797ZM14.5443 5.34124C14.5443 6.0036 15.0815 6.54156 15.7447 6.54156C16.407 6.54156 16.945 6.0036 16.945 5.34124C16.945 4.67888 16.4078 4.14173 15.7447 4.14173C15.0815 4.14173 14.5443 4.67888 14.5443 5.34124ZM6.36586 18.8194C5.3909 18.775 4.86102 18.6127 4.50884 18.4753C4.04195 18.2936 3.70916 18.0771 3.35859 17.7274C3.00884 17.3776 2.79155 17.0448 2.61061 16.5779C2.47329 16.2257 2.31094 15.6959 2.26651 14.7209C2.21804 13.6668 2.20835 13.3501 2.20835 10.6797C2.20835 8.00925 2.21885 7.69342 2.26651 6.63849C2.31094 5.66353 2.4741 5.13446 2.61061 4.78147C2.79236 4.31458 3.00884 3.98179 3.35859 3.63122C3.70835 3.28147 4.04115 3.06418 4.50884 2.88324C4.86102 2.74593 5.3909 2.58357 6.36586 2.53914C7.41998 2.49068 7.73662 2.48098 10.4062 2.48098C13.0766 2.48098 13.3926 2.49148 14.4475 2.53914C15.4225 2.58357 15.9514 2.74673 16.3044 2.88324C16.7713 3.06418 17.1042 3.28147 17.4548 3.63122C17.8045 3.98098 18.021 4.31458 18.2027 4.78147C18.34 5.13365 18.5023 5.66353 18.5469 6.63849C18.5953 7.69342 18.6049 8.00925 18.6049 10.6797C18.6049 13.3493 18.5953 13.666 18.5469 14.7209C18.5023 15.6959 18.3393 16.2257 18.2027 16.5779C18.021 17.0448 17.8045 17.3776 17.4548 17.7274C17.1049 18.0771 16.7713 18.2936 16.3044 18.4753C15.9522 18.6127 15.4225 18.775 14.4475 18.8194C13.3934 18.8679 13.0766 18.8776 10.4062 18.8776C7.73662 18.8776 7.41998 18.8679 6.36586 18.8194ZM6.28347 0.740268C5.21885 0.788738 4.49187 0.957557 3.85617 1.20473C3.19866 1.45998 2.64131 1.80247 2.08476 2.3582C1.52903 2.91394 1.18654 3.47129 0.93129 4.12961C0.68412 4.76531 0.5153 5.49229 0.46683 6.55691C0.41756 7.62315 0.40625 7.96402 0.40625 10.6797C0.40625 13.3954 0.41756 13.7362 0.46683 14.8025C0.5153 15.8671 0.68412 16.5941 0.93129 17.2298C1.18654 17.8873 1.52822 18.4455 2.08476 19.0012C2.6405 19.5569 3.19785 19.8986 3.85617 20.1547C4.49268 20.4018 5.21885 20.5707 6.28347 20.6191C7.35052 20.6676 7.69058 20.6797 10.4062 20.6797C13.1228 20.6797 13.4628 20.6684 14.5291 20.6191C15.5937 20.5707 16.3207 20.4018 16.9564 20.1547C17.6138 19.8986 18.1712 19.5569 18.7278 19.0012C19.2835 18.4455 19.6252 17.8873 19.8813 17.2298C20.1284 16.5941 20.298 15.8671 20.3456 14.8025C20.3941 13.7354 20.4055 13.3954 20.4055 10.6797C20.4055 7.96402 20.3941 7.62315 20.3456 6.55691C20.2972 5.49229 20.1284 4.76531 19.8813 4.12961C19.6252 3.4721 19.2835 2.91475 18.7278 2.3582C18.1721 1.80247 17.6138 1.45998 16.9571 1.20473C16.3206 0.957557 15.5936 0.787928 14.5299 0.740268C13.4636 0.691808 13.1228 0.679688 10.4071 0.679688C7.69058 0.679688 7.35052 0.690998 6.28347 0.740268Z" fill="#FFF7F7"/>
</svg>
