<svg width="21" height="20" viewBox="0 0 21 20" fill="none" xmlns="http://www.w3.org/2000/svg">
<path d="M17.4065 0H3.40625C1.40625 0 0.40625 1 0.40625 3L0.40684 17C0.40684 19 1.40646 20 3.40646 20H17.4065C19.4065 20 20.4065 19 20.4065 17V3C20.4065 1 19.4065 0 17.4065 0ZM7.07312 15.8334H4.57312V6.66667H7.07312V15.8334ZM5.82312 5.61C5.01812 5.61 4.36479 4.95167 4.36479 4.14C4.36479 3.32833 5.01812 2.67 5.82312 2.67C6.62812 2.67 7.28146 3.32833 7.28146 4.14C7.28146 4.95167 6.62896 5.61 5.82312 5.61ZM17.0732 15.8334H14.5732V11.1634C14.5732 8.35668 11.2397 8.56918 11.2397 11.1634V15.8334H8.73975V6.66667H11.2397V8.13748C12.4031 5.9825 17.0732 5.82334 17.0732 10.2009V15.8334Z" fill="#212121"/>
</svg>
