<svg width="25" height="25" viewBox="0 0 25 25" fill="none" xmlns="http://www.w3.org/2000/svg">
<path d="M19.4065 2.67969H5.40625C3.40625 2.67969 2.40625 3.67969 2.40625 5.67969L2.40684 19.6797C2.40684 21.6797 3.40646 22.6797 5.40646 22.6797H19.4065C21.4065 22.6797 22.4065 21.6797 22.4065 19.6797V5.67969C22.4065 3.67969 21.4065 2.67969 19.4065 2.67969ZM9.07312 18.5131H6.57312V9.34636H9.07312V18.5131ZM7.82312 8.28969C7.01812 8.28969 6.36479 7.63136 6.36479 6.81969C6.36479 6.00802 7.01812 5.34969 7.82312 5.34969C8.62812 5.34969 9.28146 6.00802 9.28146 6.81969C9.28146 7.63136 8.62896 8.28969 7.82312 8.28969ZM19.0732 18.5131H16.5732V13.8431C16.5732 11.0364 13.2397 11.2489 13.2397 13.8431V18.5131H10.7397V9.34636H13.2397V10.8172C14.4031 8.66219 19.0732 8.50303 19.0732 12.8806V18.5131Z" fill="#FFF7F7"/>
</svg>
