<svg width="41" height="41" viewBox="0 0 41 41" fill="none" xmlns="http://www.w3.org/2000/svg">
<path d="M31.7965 18.5109H8.46322C6.62227 18.5109 5.12988 20.0032 5.12988 21.8442V33.5109C5.12988 35.3518 6.62227 36.8442 8.46322 36.8442H31.7965C33.6375 36.8442 35.1299 35.3518 35.1299 33.5109V21.8442C35.1299 20.0032 33.6375 18.5109 31.7965 18.5109Z" stroke="white" stroke-width="2" stroke-linecap="round" stroke-linejoin="round"/>
<path d="M11.7964 18.5109V11.8442C11.7964 9.63406 12.6744 7.51444 14.2372 5.95164C15.8 4.38884 17.9196 3.51086 20.1297 3.51086C22.3399 3.51086 24.4595 4.38884 26.0223 5.95164C27.5851 7.51444 28.4631 9.63406 28.4631 11.8442V18.5109" stroke="white" stroke-width="2" stroke-linecap="round" stroke-linejoin="round"/>
</svg>
