<svg width="97" height="96" viewBox="0 0 97 96" fill="none" xmlns="http://www.w3.org/2000/svg">
<g filter="url(#filter0_d_27_1116)">
<rect x="20" y="16.5" width="57" height="55" rx="27.5" fill="#E3F7FF"/>
<path d="M44.2744 54.384C42.2477 54.384 40.509 53.904 39.0584 52.944C37.6077 51.9627 36.4877 50.608 35.6984 48.88C34.9304 47.1307 34.5464 45.104 34.5464 42.8C34.5464 40.496 34.9304 38.48 35.6984 36.752C36.4877 35.0027 37.6077 33.648 39.0584 32.688C40.509 31.7067 42.2477 31.216 44.2744 31.216C46.2797 31.216 47.997 31.7067 49.4264 32.688C50.877 33.648 51.9864 35.0027 52.7544 36.752C53.5437 38.48 53.9384 40.496 53.9384 42.8C53.9384 45.104 53.5437 47.1307 52.7544 48.88C51.9864 50.608 50.877 51.9627 49.4264 52.944C47.997 53.904 46.2797 54.384 44.2744 54.384ZM44.2424 51.536C45.501 51.536 46.6104 51.184 47.5704 50.48C48.5304 49.776 49.2877 48.7733 49.8424 47.472C50.397 46.1707 50.6744 44.6133 50.6744 42.8C50.6744 40.9867 50.397 39.4293 49.8424 38.128C49.2877 36.8267 48.5304 35.8347 47.5704 35.152C46.6104 34.448 45.501 34.096 44.2424 34.096C43.005 34.096 41.8957 34.448 40.9144 35.152C39.933 35.8347 39.165 36.8267 38.6104 38.128C38.077 39.4293 37.8104 40.9867 37.8104 42.8C37.8104 44.6133 38.077 46.1707 38.6104 47.472C39.165 48.7733 39.933 49.776 40.9144 50.48C41.8957 51.184 43.005 51.536 44.2424 51.536ZM59.6176 54V35.216L55.9696 36.048V33.712L60.8336 31.6H62.8816V54H59.6176Z" fill="#040712"/>
</g>
<defs>
<filter id="filter0_d_27_1116" x="0" y="0.5" width="97" height="95" filterUnits="userSpaceOnUse" color-interpolation-filters="sRGB">
<feFlood flood-opacity="0" result="BackgroundImageFix"/>
<feColorMatrix in="SourceAlpha" type="matrix" values="0 0 0 0 0 0 0 0 0 0 0 0 0 0 0 0 0 0 127 0" result="hardAlpha"/>
<feOffset dy="4"/>
<feGaussianBlur stdDeviation="10"/>
<feComposite in2="hardAlpha" operator="out"/>
<feColorMatrix type="matrix" values="0 0 0 0 0.606652 0 0 0 0 0.858598 0 0 0 0 0.961667 0 0 0 0.47 0"/>
<feBlend mode="normal" in2="BackgroundImageFix" result="effect1_dropShadow_27_1116"/>
<feBlend mode="normal" in="SourceGraphic" in2="effect1_dropShadow_27_1116" result="shape"/>
</filter>
</defs>
</svg>
