<svg width="98" height="96" viewBox="0 0 98 96" fill="none" xmlns="http://www.w3.org/2000/svg">
<g filter="url(#filter0_d_27_1197)">
<rect x="20.6667" y="16.5" width="57" height="55" rx="27.5" fill="#E3F7FF"/>
<path d="M40.8942 54.384C38.8676 54.384 37.1289 53.904 35.6782 52.944C34.2276 51.9627 33.1076 50.608 32.3182 48.88C31.5502 47.1307 31.1662 45.104 31.1662 42.8C31.1662 40.496 31.5502 38.48 32.3182 36.752C33.1076 35.0027 34.2276 33.648 35.6782 32.688C37.1289 31.7067 38.8676 31.216 40.8942 31.216C42.8996 31.216 44.6169 31.7067 46.0462 32.688C47.4969 33.648 48.6062 35.0027 49.3742 36.752C50.1636 38.48 50.5582 40.496 50.5582 42.8C50.5582 45.104 50.1636 47.1307 49.3742 48.88C48.6062 50.608 47.4969 51.9627 46.0462 52.944C44.6169 53.904 42.8996 54.384 40.8942 54.384ZM40.8622 51.536C42.1209 51.536 43.2302 51.184 44.1902 50.48C45.1502 49.776 45.9076 48.7733 46.4622 47.472C47.0169 46.1707 47.2942 44.6133 47.2942 42.8C47.2942 40.9867 47.0169 39.4293 46.4622 38.128C45.9076 36.8267 45.1502 35.8347 44.1902 35.152C43.2302 34.448 42.1209 34.096 40.8622 34.096C39.6249 34.096 38.5156 34.448 37.5342 35.152C36.5529 35.8347 35.7849 36.8267 35.2302 38.128C34.6969 39.4293 34.4302 40.9867 34.4302 42.8C34.4302 44.6133 34.6969 46.1707 35.2302 47.472C35.7849 48.7733 36.5529 49.776 37.5342 50.48C38.5156 51.184 39.6249 51.536 40.8622 51.536ZM61.3255 54.384C59.7468 54.384 58.3815 54.096 57.2295 53.52C56.0988 52.944 55.1922 52.1653 54.5095 51.184C53.8482 50.2027 53.4428 49.0933 53.2935 47.856H56.4295C56.6642 48.9867 57.2082 49.904 58.0615 50.608C58.9362 51.312 60.0348 51.664 61.3575 51.664C62.3175 51.664 63.1495 51.4293 63.8535 50.96C64.5788 50.4907 65.1335 49.8613 65.5175 49.072C65.9015 48.2613 66.0935 47.376 66.0935 46.416C66.0935 45.3707 65.8908 44.464 65.4855 43.696C65.1015 42.928 64.5575 42.3307 63.8535 41.904C63.1495 41.4773 62.3388 41.264 61.4215 41.264C60.2908 41.264 59.3202 41.5307 58.5095 42.064C57.6988 42.576 57.1122 43.248 56.7495 44.08H53.6775L55.5975 31.6H67.5975V34.384H58.0295L56.8455 40.624C57.3575 40.0267 58.0402 39.5467 58.8935 39.184C59.7682 38.8 60.7602 38.608 61.8695 38.608C63.0002 38.608 64.0135 38.8107 64.9095 39.216C65.8268 39.6213 66.5948 40.176 67.2135 40.88C67.8535 41.584 68.3442 42.4053 68.6855 43.344C69.0268 44.2827 69.1975 45.296 69.1975 46.384C69.1975 47.4933 69.0162 48.5387 68.6535 49.52C68.2908 50.48 67.7682 51.3333 67.0855 52.08C66.4028 52.8053 65.5708 53.3707 64.5895 53.776C63.6295 54.1813 62.5415 54.384 61.3255 54.384Z" fill="#040712"/>
</g>
<defs>
<filter id="filter0_d_27_1197" x="0.666748" y="0.5" width="97" height="95" filterUnits="userSpaceOnUse" color-interpolation-filters="sRGB">
<feFlood flood-opacity="0" result="BackgroundImageFix"/>
<feColorMatrix in="SourceAlpha" type="matrix" values="0 0 0 0 0 0 0 0 0 0 0 0 0 0 0 0 0 0 127 0" result="hardAlpha"/>
<feOffset dy="4"/>
<feGaussianBlur stdDeviation="10"/>
<feComposite in2="hardAlpha" operator="out"/>
<feColorMatrix type="matrix" values="0 0 0 0 0.606652 0 0 0 0 0.858598 0 0 0 0 0.961667 0 0 0 0.47 0"/>
<feBlend mode="normal" in2="BackgroundImageFix" result="effect1_dropShadow_27_1197"/>
<feBlend mode="normal" in="SourceGraphic" in2="effect1_dropShadow_27_1197" result="shape"/>
</filter>
</defs>
</svg>
