<svg width="98" height="96" viewBox="0 0 98 96" fill="none" xmlns="http://www.w3.org/2000/svg">
<g filter="url(#filter0_d_27_1172)">
<rect x="20.3335" y="16.5" width="57" height="55" rx="27.5" fill="#E3F7FF"/>
<path d="M40.7016 54.384C38.675 54.384 36.9363 53.904 35.4856 52.944C34.035 51.9627 32.915 50.608 32.1256 48.88C31.3576 47.1307 30.9736 45.104 30.9736 42.8C30.9736 40.496 31.3576 38.48 32.1256 36.752C32.915 35.0027 34.035 33.648 35.4856 32.688C36.9363 31.7067 38.675 31.216 40.7016 31.216C42.707 31.216 44.4243 31.7067 45.8536 32.688C47.3043 33.648 48.4136 35.0027 49.1816 36.752C49.971 38.48 50.3656 40.496 50.3656 42.8C50.3656 45.104 49.971 47.1307 49.1816 48.88C48.4136 50.608 47.3043 51.9627 45.8536 52.944C44.4243 53.904 42.707 54.384 40.7016 54.384ZM40.6696 51.536C41.9283 51.536 43.0376 51.184 43.9976 50.48C44.9576 49.776 45.715 48.7733 46.2696 47.472C46.8243 46.1707 47.1016 44.6133 47.1016 42.8C47.1016 40.9867 46.8243 39.4293 46.2696 38.128C45.715 36.8267 44.9576 35.8347 43.9976 35.152C43.0376 34.448 41.9283 34.096 40.6696 34.096C39.4323 34.096 38.323 34.448 37.3416 35.152C36.3603 35.8347 35.5923 36.8267 35.0376 38.128C34.5043 39.4293 34.2376 40.9867 34.2376 42.8C34.2376 44.6133 34.5043 46.1707 35.0376 47.472C35.5923 48.7733 36.3603 49.776 37.3416 50.48C38.323 51.184 39.4323 51.536 40.6696 51.536ZM60.8769 54.384C59.4475 54.384 58.1355 54.128 56.9409 53.616C55.7675 53.0827 54.8289 52.2933 54.1249 51.248C53.4422 50.1813 53.0795 48.848 53.0369 47.248H56.2369C56.2582 48.0587 56.4502 48.7947 56.8129 49.456C57.1755 50.1173 57.6982 50.6507 58.3809 51.056C59.0849 51.44 59.9169 51.632 60.8769 51.632C61.8369 51.632 62.6369 51.4507 63.2769 51.088C63.9382 50.7253 64.4289 50.2347 64.7489 49.616C65.0902 48.9973 65.2609 48.304 65.2609 47.536C65.2609 46.576 65.0262 45.7973 64.5569 45.2C64.1089 44.5813 63.4902 44.1227 62.7009 43.824C61.9329 43.504 61.0689 43.344 60.1089 43.344H58.4449V40.688H60.1089C61.4315 40.688 62.4875 40.3787 63.2769 39.76C64.0662 39.1413 64.4609 38.2773 64.4609 37.168C64.4609 36.2293 64.1515 35.4613 63.5329 34.864C62.9355 34.2667 62.0502 33.968 60.8769 33.968C59.7035 33.968 58.7755 34.3093 58.0929 34.992C57.4102 35.6747 57.0262 36.5387 56.9409 37.584H53.7409C53.8049 36.3253 54.1355 35.216 54.7329 34.256C55.3515 33.2747 56.1835 32.528 57.2289 32.016C58.2742 31.4827 59.4902 31.216 60.8769 31.216C62.3489 31.216 63.5862 31.4827 64.5889 32.016C65.5915 32.528 66.3489 33.2213 66.8609 34.096C67.3729 34.9707 67.6289 35.92 67.6289 36.944C67.6289 37.7333 67.4795 38.4693 67.1809 39.152C66.9035 39.8133 66.4875 40.3893 65.9329 40.88C65.3995 41.3707 64.7489 41.712 63.9809 41.904C64.8342 42.0747 65.5915 42.416 66.2529 42.928C66.9355 43.4187 67.4689 44.0587 67.8529 44.848C68.2582 45.6373 68.4609 46.544 68.4609 47.568C68.4609 48.784 68.1729 49.9147 67.5969 50.96C67.0209 51.984 66.1675 52.816 65.0369 53.456C63.9062 54.0747 62.5195 54.384 60.8769 54.384Z" fill="#040712"/>
</g>
<defs>
<filter id="filter0_d_27_1172" x="0.333496" y="0.5" width="97" height="95" filterUnits="userSpaceOnUse" color-interpolation-filters="sRGB">
<feFlood flood-opacity="0" result="BackgroundImageFix"/>
<feColorMatrix in="SourceAlpha" type="matrix" values="0 0 0 0 0 0 0 0 0 0 0 0 0 0 0 0 0 0 127 0" result="hardAlpha"/>
<feOffset dy="4"/>
<feGaussianBlur stdDeviation="10"/>
<feComposite in2="hardAlpha" operator="out"/>
<feColorMatrix type="matrix" values="0 0 0 0 0.606652 0 0 0 0 0.858598 0 0 0 0 0.961667 0 0 0 0.47 0"/>
<feBlend mode="normal" in2="BackgroundImageFix" result="effect1_dropShadow_27_1172"/>
<feBlend mode="normal" in="SourceGraphic" in2="effect1_dropShadow_27_1172" result="shape"/>
</filter>
</defs>
</svg>
