<svg width="98" height="96" viewBox="0 0 98 96" fill="none" xmlns="http://www.w3.org/2000/svg">
<g filter="url(#filter0_d_27_1180)">
<rect x="20.6667" y="16.5" width="57" height="55" rx="27.5" fill="#E3F7FF"/>
<path d="M41.0817 54.384C39.0551 54.384 37.3164 53.904 35.8657 52.944C34.4151 51.9627 33.2951 50.608 32.5057 48.88C31.7377 47.1307 31.3537 45.104 31.3537 42.8C31.3537 40.496 31.7377 38.48 32.5057 36.752C33.2951 35.0027 34.4151 33.648 35.8657 32.688C37.3164 31.7067 39.0551 31.216 41.0817 31.216C43.0871 31.216 44.8044 31.7067 46.2337 32.688C47.6844 33.648 48.7937 35.0027 49.5617 36.752C50.3511 38.48 50.7457 40.496 50.7457 42.8C50.7457 45.104 50.3511 47.1307 49.5617 48.88C48.7937 50.608 47.6844 51.9627 46.2337 52.944C44.8044 53.904 43.0871 54.384 41.0817 54.384ZM41.0497 51.536C42.3084 51.536 43.4177 51.184 44.3777 50.48C45.3377 49.776 46.0951 48.7733 46.6497 47.472C47.2044 46.1707 47.4817 44.6133 47.4817 42.8C47.4817 40.9867 47.2044 39.4293 46.6497 38.128C46.0951 36.8267 45.3377 35.8347 44.3777 35.152C43.4177 34.448 42.3084 34.096 41.0497 34.096C39.8124 34.096 38.7031 34.448 37.7217 35.152C36.7404 35.8347 35.9724 36.8267 35.4177 38.128C34.8844 39.4293 34.6177 40.9867 34.6177 42.8C34.6177 44.6133 34.8844 46.1707 35.4177 47.472C35.9724 48.7733 36.7404 49.776 37.7217 50.48C38.7031 51.184 39.8124 51.536 41.0497 51.536ZM53.167 54V51.696C54.639 50.544 56.0363 49.3813 57.359 48.208C58.6817 47.0347 59.8657 45.872 60.911 44.72C61.9777 43.5467 62.8097 42.4053 63.407 41.296C64.0043 40.1653 64.303 39.088 64.303 38.064C64.303 37.3387 64.175 36.6667 63.919 36.048C63.663 35.4293 63.2577 34.928 62.703 34.544C62.1697 34.1387 61.4337 33.936 60.495 33.936C59.5777 33.936 58.8097 34.1387 58.191 34.544C57.5937 34.9493 57.135 35.4933 56.815 36.176C56.5163 36.8373 56.367 37.5733 56.367 38.384H53.295C53.3163 36.848 53.6363 35.5467 54.255 34.48C54.895 33.4133 55.759 32.6027 56.847 32.048C57.935 31.4933 59.1723 31.216 60.559 31.216C61.967 31.216 63.183 31.4827 64.207 32.016C65.2523 32.528 66.063 33.2853 66.639 34.288C67.215 35.2693 67.503 36.4747 67.503 37.904C67.503 38.928 67.3003 39.952 66.895 40.976C66.4897 41.9787 65.935 42.96 65.231 43.92C64.5483 44.88 63.7803 45.808 62.927 46.704C62.095 47.5787 61.231 48.4107 60.335 49.2C59.439 49.9893 58.5857 50.704 57.775 51.344H68.175V54H53.167Z" fill="#040712"/>
</g>
<defs>
<filter id="filter0_d_27_1180" x="0.666748" y="0.5" width="97" height="95" filterUnits="userSpaceOnUse" color-interpolation-filters="sRGB">
<feFlood flood-opacity="0" result="BackgroundImageFix"/>
<feColorMatrix in="SourceAlpha" type="matrix" values="0 0 0 0 0 0 0 0 0 0 0 0 0 0 0 0 0 0 127 0" result="hardAlpha"/>
<feOffset dy="4"/>
<feGaussianBlur stdDeviation="10"/>
<feComposite in2="hardAlpha" operator="out"/>
<feColorMatrix type="matrix" values="0 0 0 0 0.606652 0 0 0 0 0.858598 0 0 0 0 0.961667 0 0 0 0.47 0"/>
<feBlend mode="normal" in2="BackgroundImageFix" result="effect1_dropShadow_27_1180"/>
<feBlend mode="normal" in="SourceGraphic" in2="effect1_dropShadow_27_1180" result="shape"/>
</filter>
</defs>
</svg>
