<svg width="98" height="96" viewBox="0 0 98 96" fill="none" xmlns="http://www.w3.org/2000/svg">
<g filter="url(#filter0_d_27_1204)">
<rect x="20.3335" y="16.5" width="57" height="55" rx="27.5" fill="#E3F7FF"/>
<path d="M39.6704 54.384C37.6437 54.384 35.905 53.904 34.4544 52.944C33.0037 51.9627 31.8837 50.608 31.0944 48.88C30.3264 47.1307 29.9424 45.104 29.9424 42.8C29.9424 40.496 30.3264 38.48 31.0944 36.752C31.8837 35.0027 33.0037 33.648 34.4544 32.688C35.905 31.7067 37.6437 31.216 39.6704 31.216C41.6757 31.216 43.393 31.7067 44.8224 32.688C46.273 33.648 47.3824 35.0027 48.1504 36.752C48.9397 38.48 49.3344 40.496 49.3344 42.8C49.3344 45.104 48.9397 47.1307 48.1504 48.88C47.3824 50.608 46.273 51.9627 44.8224 52.944C43.393 53.904 41.6757 54.384 39.6704 54.384ZM39.6384 51.536C40.897 51.536 42.0064 51.184 42.9664 50.48C43.9264 49.776 44.6837 48.7733 45.2384 47.472C45.793 46.1707 46.0704 44.6133 46.0704 42.8C46.0704 40.9867 45.793 39.4293 45.2384 38.128C44.6837 36.8267 43.9264 35.8347 42.9664 35.152C42.0064 34.448 40.897 34.096 39.6384 34.096C38.401 34.096 37.2917 34.448 36.3104 35.152C35.329 35.8347 34.561 36.8267 34.0064 38.128C33.473 39.4293 33.2064 40.9867 33.2064 42.8C33.2064 44.6133 33.473 46.1707 34.0064 47.472C34.561 48.7733 35.329 49.776 36.3104 50.48C37.2917 51.184 38.401 51.536 39.6384 51.536ZM60.8696 54.384C59.227 54.384 57.8403 54.0747 56.7096 53.456C55.6003 52.8373 54.7043 52.016 54.0216 50.992C53.339 49.968 52.8376 48.816 52.5176 47.536C52.219 46.256 52.0696 44.9547 52.0696 43.632C52.0696 41.1573 52.411 38.992 53.0936 37.136C53.7763 35.28 54.7683 33.8293 56.0696 32.784C57.3923 31.7387 58.971 31.216 60.8056 31.216C62.2776 31.216 63.5256 31.504 64.5496 32.08C65.595 32.656 66.4056 33.4133 66.9816 34.352C67.579 35.2907 67.9416 36.336 68.0696 37.488H65.0936C64.8803 36.3573 64.4003 35.4827 63.6536 34.864C62.907 34.2453 61.947 33.936 60.7736 33.936C59.7283 33.936 58.7896 34.2667 57.9576 34.928C57.1256 35.568 56.4643 36.5493 55.9736 37.872C55.483 39.1733 55.2056 40.848 55.1416 42.896C55.1416 42.9173 55.1416 42.9493 55.1416 42.992C55.1416 43.0133 55.1416 43.0453 55.1416 43.088C55.483 42.448 55.9523 41.872 56.5496 41.36C57.147 40.8267 57.851 40.4107 58.6616 40.112C59.4936 39.792 60.3896 39.632 61.3496 39.632C62.6296 39.632 63.8136 39.9307 64.9016 40.528C66.011 41.104 66.9176 41.936 67.6216 43.024C68.3256 44.112 68.6776 45.3813 68.6776 46.832C68.6776 48.1333 68.3576 49.36 67.7176 50.512C67.0776 51.664 66.171 52.6027 64.9976 53.328C63.8456 54.032 62.4696 54.384 60.8696 54.384ZM60.6776 51.6C61.595 51.6 62.4163 51.3973 63.1416 50.992C63.8883 50.5867 64.4643 50.0427 64.8696 49.36C65.2963 48.656 65.5096 47.856 65.5096 46.96C65.5096 46.0427 65.2963 45.2427 64.8696 44.56C64.4643 43.856 63.8883 43.312 63.1416 42.928C62.4163 42.544 61.5843 42.352 60.6456 42.352C59.7496 42.352 58.9283 42.5653 58.1816 42.992C57.435 43.4187 56.8483 43.984 56.4216 44.688C55.995 45.3707 55.7816 46.1387 55.7816 46.992C55.7816 47.8667 55.995 48.656 56.4216 49.36C56.8483 50.0427 57.435 50.5867 58.1816 50.992C58.9283 51.3973 59.7603 51.6 60.6776 51.6Z" fill="#040712"/>
</g>
<defs>
<filter id="filter0_d_27_1204" x="0.333496" y="0.5" width="97" height="95" filterUnits="userSpaceOnUse" color-interpolation-filters="sRGB">
<feFlood flood-opacity="0" result="BackgroundImageFix"/>
<feColorMatrix in="SourceAlpha" type="matrix" values="0 0 0 0 0 0 0 0 0 0 0 0 0 0 0 0 0 0 127 0" result="hardAlpha"/>
<feOffset dy="4"/>
<feGaussianBlur stdDeviation="10"/>
<feComposite in2="hardAlpha" operator="out"/>
<feColorMatrix type="matrix" values="0 0 0 0 0.606652 0 0 0 0 0.858598 0 0 0 0 0.961667 0 0 0 0.47 0"/>
<feBlend mode="normal" in2="BackgroundImageFix" result="effect1_dropShadow_27_1204"/>
<feBlend mode="normal" in="SourceGraphic" in2="effect1_dropShadow_27_1204" result="shape"/>
</filter>
</defs>
</svg>
