<svg width="98" height="96" viewBox="0 0 98 96" fill="none" xmlns="http://www.w3.org/2000/svg">
<g filter="url(#filter0_d_27_1228)">
<rect x="20.3335" y="16.5" width="57" height="55" rx="27.5" fill="#E3F7FF"/>
<path d="M39.6704 54.384C37.6437 54.384 35.905 53.904 34.4544 52.944C33.0037 51.9627 31.8837 50.608 31.0944 48.88C30.3264 47.1307 29.9424 45.104 29.9424 42.8C29.9424 40.496 30.3264 38.48 31.0944 36.752C31.8837 35.0027 33.0037 33.648 34.4544 32.688C35.905 31.7067 37.6437 31.216 39.6704 31.216C41.6757 31.216 43.393 31.7067 44.8224 32.688C46.273 33.648 47.3824 35.0027 48.1504 36.752C48.9397 38.48 49.3344 40.496 49.3344 42.8C49.3344 45.104 48.9397 47.1307 48.1504 48.88C47.3824 50.608 46.273 51.9627 44.8224 52.944C43.393 53.904 41.6757 54.384 39.6704 54.384ZM39.6384 51.536C40.897 51.536 42.0064 51.184 42.9664 50.48C43.9264 49.776 44.6837 48.7733 45.2384 47.472C45.793 46.1707 46.0704 44.6133 46.0704 42.8C46.0704 40.9867 45.793 39.4293 45.2384 38.128C44.6837 36.8267 43.9264 35.8347 42.9664 35.152C42.0064 34.448 40.897 34.096 39.6384 34.096C38.401 34.096 37.2917 34.448 36.3104 35.152C35.329 35.8347 34.561 36.8267 34.0064 38.128C33.473 39.4293 33.2064 40.9867 33.2064 42.8C33.2064 44.6133 33.473 46.1707 34.0064 47.472C34.561 48.7733 35.329 49.776 36.3104 50.48C37.2917 51.184 38.401 51.536 39.6384 51.536ZM59.8776 54.384C58.427 54.384 57.179 54.096 56.1336 53.52C55.1096 52.944 54.299 52.1867 53.7016 51.248C53.1256 50.288 52.7736 49.2427 52.6456 48.112H55.6216C55.835 49.2427 56.315 50.1173 57.0616 50.736C57.8083 51.3547 58.7576 51.664 59.9096 51.664C60.9763 51.664 61.915 51.344 62.7256 50.704C63.5576 50.064 64.219 49.0827 64.7096 47.76C65.2003 46.4373 65.4776 44.7627 65.5416 42.736C65.5416 42.6933 65.5416 42.6613 65.5416 42.64C65.5416 42.5973 65.5416 42.5547 65.5416 42.512C65.2003 43.152 64.731 43.7387 64.1336 44.272C63.5363 44.784 62.8323 45.2 62.0216 45.52C61.211 45.8187 60.315 45.968 59.3336 45.968C58.0963 45.968 56.9123 45.68 55.7816 45.104C54.6723 44.5067 53.7656 43.664 53.0616 42.576C52.379 41.488 52.0376 40.2187 52.0376 38.768C52.0376 37.4667 52.347 36.24 52.9656 35.088C53.6056 33.936 54.5123 33.008 55.6856 32.304C56.859 31.5787 58.235 31.216 59.8136 31.216C61.4563 31.216 62.843 31.5253 63.9736 32.144C65.1043 32.7627 66.0003 33.584 66.6616 34.608C67.3443 35.632 67.8456 36.784 68.1656 38.064C68.4856 39.344 68.6456 40.6453 68.6456 41.968C68.6456 44.4213 68.2936 46.5867 67.5896 48.464C66.907 50.32 65.915 51.7707 64.6136 52.816C63.3123 53.8613 61.7336 54.384 59.8776 54.384ZM60.0376 43.248C60.955 43.248 61.7763 43.0347 62.5016 42.608C63.2483 42.1813 63.835 41.616 64.2616 40.912C64.6883 40.208 64.9016 39.44 64.9016 38.608C64.9016 37.7333 64.6883 36.944 64.2616 36.24C63.835 35.536 63.2483 34.992 62.5016 34.608C61.7763 34.2027 60.9443 34 60.0056 34C59.0883 34 58.2563 34.2027 57.5096 34.608C56.7843 35.0133 56.219 35.5573 55.8136 36.24C55.4083 36.9227 55.2056 37.7227 55.2056 38.64C55.2056 39.5573 55.4083 40.368 55.8136 41.072C56.219 41.7547 56.7843 42.288 57.5096 42.672C58.2563 43.056 59.099 43.248 60.0376 43.248Z" fill="#040712"/>
</g>
<defs>
<filter id="filter0_d_27_1228" x="0.333496" y="0.5" width="97" height="95" filterUnits="userSpaceOnUse" color-interpolation-filters="sRGB">
<feFlood flood-opacity="0" result="BackgroundImageFix"/>
<feColorMatrix in="SourceAlpha" type="matrix" values="0 0 0 0 0 0 0 0 0 0 0 0 0 0 0 0 0 0 127 0" result="hardAlpha"/>
<feOffset dy="4"/>
<feGaussianBlur stdDeviation="10"/>
<feComposite in2="hardAlpha" operator="out"/>
<feColorMatrix type="matrix" values="0 0 0 0 0.606652 0 0 0 0 0.858598 0 0 0 0 0.961667 0 0 0 0.47 0"/>
<feBlend mode="normal" in2="BackgroundImageFix" result="effect1_dropShadow_27_1228"/>
<feBlend mode="normal" in="SourceGraphic" in2="effect1_dropShadow_27_1228" result="shape"/>
</filter>
</defs>
</svg>
