<svg width="97" height="96" viewBox="0 0 97 96" fill="none" xmlns="http://www.w3.org/2000/svg">
<g filter="url(#filter0_d_27_1190)">
<rect x="20" y="16.5" width="57" height="55" rx="27.5" fill="#E3F7FF"/>
<path d="M39.2744 54.384C37.2477 54.384 35.509 53.904 34.0584 52.944C32.6077 51.9627 31.4877 50.608 30.6984 48.88C29.9304 47.1307 29.5464 45.104 29.5464 42.8C29.5464 40.496 29.9304 38.48 30.6984 36.752C31.4877 35.0027 32.6077 33.648 34.0584 32.688C35.509 31.7067 37.2477 31.216 39.2744 31.216C41.2797 31.216 42.997 31.7067 44.4264 32.688C45.877 33.648 46.9864 35.0027 47.7544 36.752C48.5437 38.48 48.9384 40.496 48.9384 42.8C48.9384 45.104 48.5437 47.1307 47.7544 48.88C46.9864 50.608 45.877 51.9627 44.4264 52.944C42.997 53.904 41.2797 54.384 39.2744 54.384ZM39.2424 51.536C40.501 51.536 41.6104 51.184 42.5704 50.48C43.5304 49.776 44.2877 48.7733 44.8424 47.472C45.397 46.1707 45.6744 44.6133 45.6744 42.8C45.6744 40.9867 45.397 39.4293 44.8424 38.128C44.2877 36.8267 43.5304 35.8347 42.5704 35.152C41.6104 34.448 40.501 34.096 39.2424 34.096C38.005 34.096 36.8957 34.448 35.9144 35.152C34.933 35.8347 34.165 36.8267 33.6104 38.128C33.077 39.4293 32.8104 40.9867 32.8104 42.8C32.8104 44.6133 33.077 46.1707 33.6104 47.472C34.165 48.7733 34.933 49.776 35.9144 50.48C36.8957 51.184 38.005 51.536 39.2424 51.536ZM62.5216 54V49.424H51.2896V46.928L61.3696 31.6H65.6896V46.64H68.8896V49.424H65.6896V54H62.5216ZM54.7776 46.64H62.7136V34.416H62.6496L54.7776 46.64Z" fill="#040712"/>
</g>
<defs>
<filter id="filter0_d_27_1190" x="0" y="0.5" width="97" height="95" filterUnits="userSpaceOnUse" color-interpolation-filters="sRGB">
<feFlood flood-opacity="0" result="BackgroundImageFix"/>
<feColorMatrix in="SourceAlpha" type="matrix" values="0 0 0 0 0 0 0 0 0 0 0 0 0 0 0 0 0 0 127 0" result="hardAlpha"/>
<feOffset dy="4"/>
<feGaussianBlur stdDeviation="10"/>
<feComposite in2="hardAlpha" operator="out"/>
<feColorMatrix type="matrix" values="0 0 0 0 0.606652 0 0 0 0 0.858598 0 0 0 0 0.961667 0 0 0 0.47 0"/>
<feBlend mode="normal" in2="BackgroundImageFix" result="effect1_dropShadow_27_1190"/>
<feBlend mode="normal" in="SourceGraphic" in2="effect1_dropShadow_27_1190" result="shape"/>
</filter>
</defs>
</svg>
