<svg width="97" height="96" viewBox="0 0 97 96" fill="none" xmlns="http://www.w3.org/2000/svg">
<g filter="url(#filter0_d_27_1214)">
<rect x="20" y="16.5" width="57" height="55" rx="27.5" fill="#E3F7FF"/>
<path d="M41.165 54.384C39.1383 54.384 37.3997 53.904 35.949 52.944C34.4983 51.9627 33.3783 50.608 32.589 48.88C31.821 47.1307 31.437 45.104 31.437 42.8C31.437 40.496 31.821 38.48 32.589 36.752C33.3783 35.0027 34.4983 33.648 35.949 32.688C37.3997 31.7067 39.1383 31.216 41.165 31.216C43.1703 31.216 44.8877 31.7067 46.317 32.688C47.7677 33.648 48.877 35.0027 49.645 36.752C50.4343 38.48 50.829 40.496 50.829 42.8C50.829 45.104 50.4343 47.1307 49.645 48.88C48.877 50.608 47.7677 51.9627 46.317 52.944C44.8877 53.904 43.1703 54.384 41.165 54.384ZM41.133 51.536C42.3917 51.536 43.501 51.184 44.461 50.48C45.421 49.776 46.1783 48.7733 46.733 47.472C47.2877 46.1707 47.565 44.6133 47.565 42.8C47.565 40.9867 47.2877 39.4293 46.733 38.128C46.1783 36.8267 45.421 35.8347 44.461 35.152C43.501 34.448 42.3917 34.096 41.133 34.096C39.8957 34.096 38.7863 34.448 37.805 35.152C36.8237 35.8347 36.0557 36.8267 35.501 38.128C34.9677 39.4293 34.701 40.9867 34.701 42.8C34.701 44.6133 34.9677 46.1707 35.501 47.472C36.0557 48.7733 36.8237 49.776 37.805 50.48C38.7863 51.184 39.8957 51.536 41.133 51.536ZM55.9048 54L64.6408 34.352H52.8008V31.6H67.9048V33.936L59.2328 54H55.9048Z" fill="#040712"/>
</g>
<defs>
<filter id="filter0_d_27_1214" x="0" y="0.5" width="97" height="95" filterUnits="userSpaceOnUse" color-interpolation-filters="sRGB">
<feFlood flood-opacity="0" result="BackgroundImageFix"/>
<feColorMatrix in="SourceAlpha" type="matrix" values="0 0 0 0 0 0 0 0 0 0 0 0 0 0 0 0 0 0 127 0" result="hardAlpha"/>
<feOffset dy="4"/>
<feGaussianBlur stdDeviation="10"/>
<feComposite in2="hardAlpha" operator="out"/>
<feColorMatrix type="matrix" values="0 0 0 0 0.606652 0 0 0 0 0.858598 0 0 0 0 0.961667 0 0 0 0.47 0"/>
<feBlend mode="normal" in2="BackgroundImageFix" result="effect1_dropShadow_27_1214"/>
<feBlend mode="normal" in="SourceGraphic" in2="effect1_dropShadow_27_1214" result="shape"/>
</filter>
</defs>
</svg>
