<svg width="98" height="96" viewBox="0 0 98 96" fill="none" xmlns="http://www.w3.org/2000/svg">
<g filter="url(#filter0_d_27_1221)">
<rect x="20.6667" y="16.5" width="57" height="55" rx="27.5" fill="#E3F7FF"/>
<path d="M40.738 54.384C38.7113 54.384 36.9727 53.904 35.522 52.944C34.0713 51.9627 32.9513 50.608 32.162 48.88C31.394 47.1307 31.01 45.104 31.01 42.8C31.01 40.496 31.394 38.48 32.162 36.752C32.9513 35.0027 34.0713 33.648 35.522 32.688C36.9727 31.7067 38.7113 31.216 40.738 31.216C42.7433 31.216 44.4607 31.7067 45.89 32.688C47.3407 33.648 48.45 35.0027 49.218 36.752C50.0073 38.48 50.402 40.496 50.402 42.8C50.402 45.104 50.0073 47.1307 49.218 48.88C48.45 50.608 47.3407 51.9627 45.89 52.944C44.4607 53.904 42.7433 54.384 40.738 54.384ZM40.706 51.536C41.9647 51.536 43.074 51.184 44.034 50.48C44.994 49.776 45.7513 48.7733 46.306 47.472C46.8607 46.1707 47.138 44.6133 47.138 42.8C47.138 40.9867 46.8607 39.4293 46.306 38.128C45.7513 36.8267 44.994 35.8347 44.034 35.152C43.074 34.448 41.9647 34.096 40.706 34.096C39.4687 34.096 38.3593 34.448 37.378 35.152C36.3967 35.8347 35.6287 36.8267 35.074 38.128C34.5407 39.4293 34.274 40.9867 34.274 42.8C34.274 44.6133 34.5407 46.1707 35.074 47.472C35.6287 48.7733 36.3967 49.776 37.378 50.48C38.3593 51.184 39.4687 51.536 40.706 51.536ZM61.1692 54.384C59.6759 54.384 58.3319 54.1173 57.1372 53.584C55.9639 53.0293 55.0252 52.2613 54.3212 51.28C53.6172 50.2987 53.2652 49.1573 53.2652 47.856C53.2652 46.9387 53.4359 46.096 53.7772 45.328C54.1399 44.5387 54.6306 43.856 55.2492 43.28C55.8892 42.704 56.6359 42.288 57.4892 42.032C56.3372 41.584 55.4412 40.9227 54.8012 40.048C54.1612 39.1733 53.8412 38.2133 53.8412 37.168C53.8412 36.08 54.1292 35.088 54.7052 34.192C55.2812 33.296 56.1132 32.5813 57.2012 32.048C58.2892 31.4933 59.6119 31.216 61.1692 31.216C62.7266 31.216 64.0492 31.4933 65.1372 32.048C66.2466 32.5813 67.0786 33.296 67.6332 34.192C68.2092 35.088 68.4972 36.08 68.4972 37.168C68.4972 38.2133 68.1772 39.184 67.5372 40.08C66.8972 40.9547 66.0119 41.6053 64.8812 42.032C65.7346 42.288 66.4706 42.704 67.0892 43.28C67.7292 43.856 68.2199 44.5387 68.5612 45.328C68.9026 46.096 69.0732 46.9387 69.0732 47.856C69.0732 49.1573 68.7212 50.2987 68.0172 51.28C67.3346 52.2613 66.3959 53.0293 65.2012 53.584C64.0066 54.1173 62.6626 54.384 61.1692 54.384ZM61.1692 51.632C62.7692 51.632 63.9532 51.2693 64.7212 50.544C65.5106 49.7973 65.9052 48.8267 65.9052 47.632C65.9052 46.288 65.4786 45.264 64.6252 44.56C63.7719 43.856 62.6199 43.504 61.1692 43.504C59.7186 43.504 58.5666 43.856 57.7132 44.56C56.8599 45.264 56.4332 46.288 56.4332 47.632C56.4332 48.8267 56.8279 49.7973 57.6172 50.544C58.4279 51.2693 59.6119 51.632 61.1692 51.632ZM61.1692 40.976C62.4492 40.976 63.4626 40.6453 64.2092 39.984C64.9559 39.3227 65.3292 38.48 65.3292 37.456C65.3292 36.2827 64.9559 35.3973 64.2092 34.8C63.4839 34.2027 62.4812 33.904 61.2012 33.904C59.9212 33.904 58.9079 34.2027 58.1612 34.8C57.4359 35.3973 57.0732 36.2827 57.0732 37.456C57.0732 38.48 57.4359 39.3227 58.1612 39.984C58.8866 40.6453 59.8892 40.976 61.1692 40.976Z" fill="#040712"/>
</g>
<defs>
<filter id="filter0_d_27_1221" x="0.666748" y="0.5" width="97" height="95" filterUnits="userSpaceOnUse" color-interpolation-filters="sRGB">
<feFlood flood-opacity="0" result="BackgroundImageFix"/>
<feColorMatrix in="SourceAlpha" type="matrix" values="0 0 0 0 0 0 0 0 0 0 0 0 0 0 0 0 0 0 127 0" result="hardAlpha"/>
<feOffset dy="4"/>
<feGaussianBlur stdDeviation="10"/>
<feComposite in2="hardAlpha" operator="out"/>
<feColorMatrix type="matrix" values="0 0 0 0 0.606652 0 0 0 0 0.858598 0 0 0 0 0.961667 0 0 0 0.47 0"/>
<feBlend mode="normal" in2="BackgroundImageFix" result="effect1_dropShadow_27_1221"/>
<feBlend mode="normal" in="SourceGraphic" in2="effect1_dropShadow_27_1221" result="shape"/>
</filter>
</defs>
</svg>
