<svg width="1440" height="248" viewBox="0 0 1440 248" fill="none" xmlns="http://www.w3.org/2000/svg">
<path d="M-30.1344 165.926C37.9832 159.078 103.68 141.642 163.327 116.865L174.507 112.168L185.456 107.233L190.931 104.758L196.31 102.17L207.067 96.9815C221.167 89.8241 235.075 82.4558 248.502 74.6234C261.93 66.791 275.261 58.8742 289.131 51.4636C302.882 43.8728 317.692 37.3682 333.313 32.0584L339.268 30.2727C341.189 29.6821 343.321 29.232 345.358 28.6977C349.372 27.5868 353.579 26.9119 357.729 26.0541C359.803 25.6885 361.936 25.4213 364.049 25.1119L367.199 24.648C368.256 24.5073 369.331 24.4229 370.388 24.3104L376.785 23.6917L383.22 23.3401L386.428 23.1855L389.655 23.1855C391.807 23.1855 393.958 23.1152 396.11 23.1855C400.393 23.312 404.696 23.3261 408.98 23.6495C417.549 24.1676 426.071 25.0313 434.51 26.2369C451.357 28.7243 467.954 32.0458 484.186 36.1785C500.457 40.2142 516.516 44.6156 532.479 49.3122C564.387 58.607 595.871 68.6893 627.817 77.8435C659.763 86.9977 692.266 95.2941 725.787 100.609C759.308 105.925 793.885 108.217 827.963 105.236C844.988 103.789 861.739 100.96 877.908 96.7988C894.049 92.5432 909.508 87.0123 924.012 80.3043C953.057 66.9597 979.316 50.4653 1009.44 38.2175C1016.94 35.1394 1024.73 32.4607 1032.76 30.2023C1040.8 27.9707 1049.06 26.2029 1057.48 24.9151C1074.37 22.4574 1091.66 21.7897 1108.81 22.9324C1125.93 24.1375 1142.84 26.5918 1159.29 30.2586C1175.72 33.928 1191.83 38.3329 1207.53 43.4485C1223.26 48.4967 1238.65 54.0932 1253.88 59.8726L1299.41 77.506C1314.62 83.3135 1329.89 89.0788 1345.51 94.3801C1361.09 99.6617 1377.04 104.323 1393.3 108.343C1409.58 112.371 1426.36 115.197 1443.4 116.78C1460.46 118.356 1477.72 118.242 1494.73 116.443C1477.72 118.257 1460.46 118.384 1443.4 116.823C1426.35 115.27 1409.55 112.467 1393.27 108.456C1376.99 104.454 1361.02 99.8016 1345.43 94.5207C1329.82 89.3038 1314.54 83.5666 1299.33 77.7591L1253.78 60.1679C1238.53 54.4026 1223.14 48.8201 1207.41 43.786C1191.72 38.6889 1175.62 34.3027 1159.2 30.6523C1142.77 27.0066 1125.89 24.5712 1108.81 23.3824C1091.71 22.2559 1074.47 22.9331 1057.63 25.3932C1040.84 28.0054 1024.69 32.497 1009.76 38.7097C979.739 50.9434 953.518 67.4519 924.434 80.8949C909.896 87.6332 894.398 93.1922 878.216 97.4737C861.999 101.694 845.189 104.571 828.097 106.051C793.904 109.089 759.154 106.839 725.614 101.509C692.074 96.18 659.456 87.7851 627.51 78.6169C595.564 69.4486 564.118 59.3242 532.21 50.0153C516.266 45.3468 500.207 40.8892 483.975 36.8395C467.77 32.7124 451.206 29.3817 434.395 26.8697C425.984 25.5597 417.48 24.5927 408.923 23.9729C404.658 23.6354 400.355 23.6214 396.071 23.4808C393.939 23.4808 391.788 23.4808 389.655 23.4808L386.447 23.4808L383.239 23.6355L376.823 23.9729L370.446 24.5917C369.389 24.7041 368.332 24.7744 367.276 24.9291L364.126 25.3791C362.012 25.7025 359.899 25.9556 357.825 26.3212C353.695 27.1649 349.507 27.8399 345.492 28.9368C343.475 29.4711 341.42 29.9211 339.422 30.4976L333.486 32.2835C317.911 37.5732 303.14 44.0492 289.419 51.6043C275.55 59.0008 262.256 66.9597 248.752 74.7218C235.248 82.4839 221.359 90.0069 207.221 97.1643L196.444 102.339L191.065 104.926L185.591 107.401L174.603 112.323L163.442 117.02C103.738 141.754 37.9832 159.134 -30.1344 165.926Z" fill="url(#paint0_linear_1_531)" fill-opacity="0.5"/>
<path d="M-30.288 174.617C-21.7397 173.815 -13.1338 173.211 -4.64307 172.142C-0.39773 171.608 3.88604 171.2 8.11217 170.567L20.7906 168.697C37.6716 166.021 54.344 162.684 70.7358 158.699L76.8829 157.293C78.9191 156.772 80.9361 156.21 82.9532 155.676L95.0937 152.413L107.061 148.827L112.978 146.943L118.856 145.017L130.632 141.094L142.157 136.875C144.078 136.158 145.999 135.469 147.92 134.752L153.683 132.502L165.055 127.988C195.036 115.491 223.568 101.217 250.366 85.3105C263.813 77.3797 276.837 69.1114 290.245 61.1665C303.508 53.0801 317.548 45.7021 332.257 39.0896C347.107 32.5432 363.334 27.8395 380.281 25.1685C397.228 22.627 414.589 21.9022 431.821 23.017C440.43 23.5123 448.993 24.3763 457.465 25.6044C465.917 26.8771 474.256 28.5207 482.438 30.526C490.66 32.4806 498.651 34.9132 506.604 37.3319C514.557 39.7505 522.529 42.1832 530.443 44.7002C546.272 49.7203 561.851 55.1481 577.449 60.5338C593.048 65.9194 608.703 71.3613 624.321 76.6345C655.71 87.0402 687.521 96.9818 720.677 103.9C753.833 110.819 788.333 114.573 822.757 112.9C839.947 112.085 856.952 109.82 873.432 106.15C889.902 102.427 905.717 97.3018 920.554 90.879C950.329 78.125 976.896 61.7712 1006.67 48.9187C1021.46 42.3372 1037.49 37.3948 1054.25 34.2524C1062.64 32.7293 1071.19 31.7135 1079.8 31.2151C1088.42 30.7369 1097.08 30.7369 1105.7 31.2151C1122.91 32.2851 1139.91 34.7564 1156.37 38.5834C1172.84 42.3558 1189.01 46.816 1204.78 51.9421C1220.59 57.0043 1236.09 62.5587 1251.46 68.2959L1297.56 85.5497C1312.93 91.3994 1328.41 96.799 1344.19 101.932C1359.92 107.068 1376.04 111.551 1392.46 115.361C1408.92 119.17 1425.82 121.844 1442.96 123.348C1460.11 124.83 1477.45 124.679 1494.54 122.898C1477.44 124.706 1460.1 124.872 1442.94 123.39C1425.81 121.9 1408.91 119.24 1392.46 115.445C1376 111.661 1359.84 107.197 1344.07 102.072C1328.28 96.9818 1312.72 91.5306 1297.39 85.7184C1266.65 74.469 1236.25 62.2915 1204.63 52.1952C1188.84 47.0883 1172.66 42.6469 1156.18 38.8927C1139.76 35.1103 1122.81 32.6767 1105.66 31.6369C1097.06 31.1588 1088.43 31.1588 1079.84 31.6369C1071.25 32.1115 1062.73 33.1039 1054.37 34.6039C1037.66 37.7618 1021.68 42.7036 1006.94 49.2703C977.261 62.1227 950.713 78.4906 920.899 91.3009C891.065 104.297 857.427 111.899 822.776 113.476C788.199 115.192 753.621 111.437 720.408 104.547C687.194 97.6568 655.364 87.6026 624.071 77.1688C608.377 71.9097 592.798 66.4819 577.219 61.0681C561.64 55.6543 546.061 50.2405 530.251 45.2205C522.356 42.6894 514.403 40.2427 506.431 37.8241C498.459 35.4055 490.525 32.9727 482.342 31.0041C465.997 26.9783 449.034 24.4514 431.84 23.4811C414.656 22.3546 397.341 23.0603 380.435 25.5763C363.563 28.2327 347.407 32.9127 332.622 39.4271C317.917 46.0174 303.877 53.3718 290.61 61.4337C277.163 69.3645 264.139 77.6188 250.711 85.5356C223.878 101.434 195.307 115.694 165.286 128.171L153.895 132.671L148.132 134.92C146.211 135.652 144.29 136.327 142.369 137.03L130.843 141.248L118.856 145.129L113.093 147.084L107.119 148.884L95.1321 152.455L82.9916 155.718C80.9554 156.252 78.9383 156.815 76.9021 157.321L70.755 158.727C54.3627 162.699 37.6902 166.022 20.8098 168.683L8.13138 170.539C3.90524 171.172 -0.378519 171.579 -4.62386 172.1C-13.1338 173.281 -21.7397 173.829 -30.288 174.617Z" fill="url(#paint1_linear_1_531)" fill-opacity="0.5"/>
<path d="M-30.461 183.321C4.18402 181.589 38.4286 176.869 71.5617 169.259C104.686 161.657 136.633 151.539 166.88 139.068C170.722 137.662 174.41 135.919 178.156 134.302C181.902 132.684 185.629 131.095 189.298 129.408L200.228 124.261L205.703 121.674L211.024 118.946L221.705 113.504C225.201 111.648 228.659 109.708 232.136 107.88C239.147 104.139 245.813 100.075 252.575 96.1098C279.468 80.1216 304.268 62.207 332.372 47.2313C346.327 39.6339 361.647 33.4825 377.899 28.951C394.236 24.554 411.412 22.0536 428.805 21.5404C446.183 20.8181 463.611 22.051 480.479 25.1964C488.864 26.8146 497.056 28.9309 504.971 31.5242L528.522 39.6238C536.36 42.3377 544.178 45.0938 551.92 47.9765C559.661 50.8591 567.287 53.8683 574.971 56.8354C590.339 62.7976 605.553 68.8301 620.902 74.722C636.25 80.6138 651.637 86.3932 667.408 91.7789C683.179 97.1645 698.989 102.283 715.279 106.6C747.801 115.22 782.225 120.591 816.917 120.324C834.249 120.223 851.501 118.599 868.303 115.487C872.491 114.671 876.621 113.715 880.79 112.843C884.958 111.972 888.915 110.692 893.007 109.637C901.041 107.276 908.896 104.6 916.539 101.622C947.063 89.5149 974.168 73.4142 1003.6 59.9712C1010.96 56.5957 1018.56 53.5163 1026.38 50.7467C1034.22 48.009 1042.35 45.724 1050.68 43.9126C1059.01 42.101 1067.54 40.8305 1076.17 40.116C1080.49 39.7438 1084.83 39.5326 1089.18 39.4832C1093.52 39.3848 1097.86 39.4832 1102.2 39.652C1119.54 40.5922 1136.65 43.0566 1153.18 46.9922C1169.7 50.8863 1185.93 55.4158 1201.8 60.5618C1217.71 65.624 1233.33 71.1643 1248.83 76.8593C1264.33 82.5543 1279.91 88.1088 1295.43 93.8038C1310.95 99.4988 1326.7 104.8 1342.69 109.722C1358.65 114.681 1374.99 118.977 1391.61 122.588C1408.25 126.193 1425.3 128.697 1442.56 130.069C1459.81 131.458 1477.23 131.279 1494.42 129.535C1477.23 131.293 1459.81 131.486 1442.56 130.111C1425.3 128.738 1408.25 126.225 1391.61 122.602C1374.97 119.007 1358.61 114.72 1342.63 109.764C1326.63 104.87 1310.82 99.6253 1295.35 93.8881C1279.89 88.1509 1264.18 82.7231 1248.71 77.014C1233.25 71.305 1217.59 65.7646 1201.67 60.7587C1185.81 55.6252 1169.58 51.1143 1153.07 47.2453C1136.57 43.3226 1119.48 40.8768 1102.18 39.9613C1097.86 39.8066 1093.54 39.7082 1089.21 39.8066C1084.89 39.9051 1080.55 40.0879 1076.25 40.4394C1067.65 41.1807 1059.15 42.4699 1050.85 44.2923C1042.55 46.1038 1034.45 48.3888 1026.63 51.1263C1018.84 53.8991 1011.26 56.9784 1003.92 60.3508C974.533 73.7938 947.486 89.8805 916.904 102.086C909.236 105.078 901.355 107.768 893.295 110.143C889.203 111.212 885.169 112.407 881.039 113.378C876.909 114.348 872.721 115.22 868.515 116.035C851.653 119.179 834.336 120.826 816.937 120.943C782.129 121.238 747.59 115.881 714.971 107.261C698.643 102.916 682.738 97.7832 667.043 92.3694C651.349 86.9557 635.904 81.1201 620.537 75.2704C605.169 69.4207 589.916 63.3179 574.625 57.3417C566.942 54.3606 559.258 51.3513 551.574 48.4686C543.89 45.586 536.052 42.8439 528.215 40.0316L504.683 31.918C496.793 29.307 488.628 27.1673 480.267 25.5199C463.462 22.3842 446.102 21.1418 428.785 21.8357C411.449 22.3346 394.326 24.8111 378.033 29.1759C361.819 33.711 346.538 39.8624 332.622 47.4562C304.537 62.3898 279.718 80.2763 252.767 96.2505C245.986 100.216 239.32 104.28 232.289 108.006C228.812 109.904 225.355 111.831 221.839 113.701L211.159 119.129L205.818 121.843L200.382 124.444L189.452 129.591C185.763 131.278 181.998 132.853 178.272 134.484C174.545 136.116 170.857 137.761 166.996 139.237C136.714 151.67 104.742 161.756 71.6001 169.329C38.4499 176.915 4.19271 181.612 -30.461 183.321Z" fill="url(#paint2_linear_1_531)" fill-opacity="0.5"/>
<path d="M-30.6146 191.94L-17.5328 191.406L-11.0015 191.139L-4.48944 190.633C-0.148043 190.295 4.19335 189.986 8.53474 189.606L21.4629 188.2C23.6144 187.933 25.785 187.736 27.9365 187.427L34.3526 186.484C38.6171 185.838 42.9201 185.247 47.1655 184.544L59.8631 182.21C61.9761 181.802 64.1084 181.464 66.2023 181.014L72.4838 179.608C76.6524 178.68 80.8593 177.794 85.0086 176.796L97.3796 173.66C99.4351 173.126 101.51 172.62 103.546 172.071L109.635 170.285L121.795 166.742C137.845 161.705 153.534 156.073 168.801 149.868C176.485 146.887 183.939 143.498 191.43 140.207C195.272 138.604 198.788 136.79 202.457 135.047C206.126 133.303 209.756 131.559 213.368 129.773C227.641 122.419 241.741 114.854 255.11 106.628C282.177 90.4849 306.65 72.1484 333.505 55.7805C346.756 47.4182 361.179 40.1074 376.535 33.9707C391.997 27.9365 408.645 23.6956 425.885 21.3995C434.496 20.2661 443.208 19.594 451.952 19.3887C460.684 19.1257 469.431 19.46 478.077 20.3871C486.746 21.351 495.239 23.0254 503.396 25.379C507.476 26.5382 511.471 27.8524 515.364 29.3163L526.889 33.802C542.353 39.7501 557.836 45.6983 572.743 52.3635L617.655 72.05C632.658 78.5887 647.718 85.0571 663.009 91.2161C678.3 97.3752 693.745 103.281 709.708 108.498C741.462 118.932 775.617 125.991 810.482 127.27C827.901 127.934 845.366 127.028 862.483 124.571C864.615 124.247 866.767 123.98 868.88 123.628L875.2 122.391L881.5 121.154L887.705 119.621L893.891 118.088L899.923 116.246L905.954 114.404C907.875 113.771 909.912 112.998 911.871 112.379C943.221 101.13 970.902 85.1977 1000.24 71.2625C1007.55 67.7752 1015.03 64.4426 1022.75 61.4193C1030.48 58.4266 1038.51 55.8648 1046.76 53.7556C1063.3 49.467 1080.81 47.5293 1098.34 48.0466C1115.82 48.7638 1133.09 51.1706 1149.71 55.204C1166.36 59.071 1182.54 63.9504 1198.58 68.9986C1214.62 74.0468 1230.37 79.6012 1246.02 85.254C1261.68 90.9068 1277.28 96.6721 1293.07 102.128C1324.73 112.871 1356.96 122.939 1390.65 129.745C1407.47 133.192 1424.66 135.577 1442.04 136.875C1459.43 138.153 1476.96 137.945 1494.29 136.256C1476.97 137.959 1459.43 138.181 1442.04 136.917C1424.65 135.659 1407.45 133.306 1390.62 129.886C1373.79 126.462 1357.24 122.354 1341.03 117.582C1324.8 112.895 1308.79 107.814 1293.01 102.339C1277.2 96.9112 1261.58 91.174 1245.93 85.4649C1230.27 79.7559 1214.5 74.3139 1198.48 69.2658C1182.46 64.2176 1166.27 59.4225 1149.61 55.5133C1133.03 51.5235 1115.79 49.1593 1098.36 48.4825C1080.89 47.9517 1063.45 49.8704 1046.97 54.1353C1038.74 56.2495 1030.74 58.8161 1023.04 61.8131C1015.35 64.7942 1007.88 68.1268 1000.58 71.6563C971.383 85.6055 943.721 101.495 912.217 112.885C910.296 113.56 908.279 114.291 906.281 114.924L900.23 116.78L894.16 118.622L887.955 120.169L881.75 121.716L875.411 122.968L869.072 124.205C866.94 124.557 864.788 124.838 862.656 125.161C845.475 127.663 827.939 128.608 810.444 127.974C775.463 126.722 741.193 119.663 709.324 109.229C693.38 103.984 677.897 97.9799 662.606 91.8771C647.315 85.7743 632.235 79.2214 617.252 72.6546L572.378 52.8838C557.471 46.2326 542.027 40.2283 526.582 34.3083L515.056 29.8226C511.185 28.3647 507.217 27.0505 503.165 25.8852C495.057 23.543 486.617 21.8733 478.001 20.9074C469.371 19.9935 460.643 19.6828 451.933 19.9793C443.222 20.1705 434.541 20.8284 425.962 21.9479C408.785 24.2293 392.196 28.4463 376.785 34.4489C361.448 40.5534 347.042 47.8363 333.813 56.1743C306.919 72.5 282.446 90.8224 255.341 106.965C241.894 115.177 227.833 122.729 213.541 130.083C209.929 131.869 206.241 133.598 202.61 135.356C198.98 137.114 195.349 138.9 191.565 140.503C184.073 143.793 176.658 147.168 168.936 150.149C153.646 156.35 137.938 161.982 121.872 167.023L109.693 170.553L103.604 172.254C101.548 172.816 99.4927 173.309 97.418 173.843L85.047 176.993C80.8977 177.963 76.6908 178.835 72.5223 179.805L66.2407 181.211C64.1468 181.661 62.0146 182.013 59.9015 182.407L47.1847 184.741C42.9393 185.43 38.6363 186.02 34.3718 186.667L27.9365 187.609C25.8043 187.905 23.6336 188.102 21.4821 188.369L8.53474 189.775C4.19335 190.155 -0.148043 190.45 -4.48944 190.801L-11.0015 191.294L-17.5328 191.561L-30.6146 191.94Z" fill="url(#paint3_linear_1_531)" fill-opacity="0.5"/>
<path d="M-30.9795 209.405L-11.0014 209.405C-8.79231 209.405 -6.58319 209.236 -4.35487 209.152L8.91903 208.618C13.3373 208.336 17.7555 207.929 22.1545 207.577L28.7819 207.043C30.991 206.902 33.1617 206.551 35.3516 206.312L48.491 204.709C52.8516 204.174 57.1546 203.302 61.496 202.684L67.9889 201.629C69.0838 201.446 70.1596 201.292 71.2353 201.081L74.4433 200.434C82.9916 198.69 91.5976 197.087 99.973 194.908C104.161 193.867 108.406 192.911 112.575 191.786L124.984 188.27L131.189 186.499L137.259 184.53L149.438 180.565C153.453 179.158 157.372 177.682 161.367 176.248L167.303 174.068L170.281 172.985L173.181 171.79C204.343 159.348 233.76 144.696 261.008 128.044C288.439 111.521 312.874 92.6224 338.058 74.3C350.679 65.1598 363.3 56.0196 377.073 47.7654C390.707 39.4001 405.663 32.262 421.62 26.504C437.651 20.7973 454.822 16.9998 472.488 15.2546C476.897 14.8112 481.333 14.5297 485.781 14.411C490.235 14.3219 494.692 14.4865 499.112 14.9031C507.991 15.724 516.635 17.5752 524.719 20.3872C532.864 23.1011 540.087 27.0243 547.501 30.4976C554.916 33.9709 562.389 37.5285 569.708 41.2549C577.027 44.9812 584.154 48.8341 591.242 52.7433L612.545 64.5411C640.822 80.22 669.137 95.9269 698.989 110.017C702.831 111.746 706.442 113.532 710.265 115.163C714.088 116.795 717.834 118.538 721.791 120.015C725.748 121.491 729.571 123.15 733.605 124.486C737.639 125.822 741.558 127.299 745.688 128.536C761.93 133.668 778.891 137.482 796.267 139.912C813.686 142.346 831.465 143.102 849.151 142.162C866.841 141.189 884.253 138.382 900.864 133.823C917.423 129.172 933.3 123.312 948.254 116.331C963.372 109.525 977.933 102.1 992.552 94.7176C1007.17 87.3352 1021.88 79.9668 1038.06 74.5109C1054.13 68.8196 1071.64 65.6489 1089.48 65.202C1107.29 64.8926 1124.95 67.6066 1141.83 71.5439C1158.66 75.6968 1175.2 80.4698 1191.37 85.8446C1207.68 90.9631 1223.74 96.5034 1239.76 102.1C1255.78 107.697 1271.76 113.349 1288.02 118.58C1296.12 121.196 1304.33 123.713 1312.59 126.061C1316.72 127.271 1320.86 128.442 1324.99 129.577C1329.14 130.744 1333.31 131.841 1337.5 132.923C1354.2 137.316 1371.2 141.07 1388.43 144.173C1422.87 150.262 1458.77 152.975 1494.08 149.685C1458.79 153.004 1422.89 150.318 1388.43 144.257C1371.18 141.155 1354.17 137.4 1337.46 133.008C1333.27 131.925 1329.11 130.828 1324.96 129.661C1320.81 128.494 1316.66 127.369 1312.53 126.16C1304.25 123.811 1296.07 121.308 1287.94 118.707C1271.67 113.49 1255.67 107.851 1239.65 102.255C1223.63 96.6581 1207.57 91.16 1191.24 86.0415C1175.07 80.6899 1158.55 75.9357 1141.73 71.797C1124.85 67.8878 1107.16 65.188 1089.5 65.5114C1071.74 65.9807 1054.3 69.1558 1038.31 74.8342C1022.19 80.2761 1007.57 87.6446 992.898 95.027C978.221 102.409 963.756 109.876 948.715 116.696C933.729 123.707 917.821 129.6 901.229 134.287C884.571 138.877 867.109 141.718 849.363 142.724C831.607 143.681 813.758 142.934 796.267 140.503C778.783 138.077 761.718 134.248 745.381 129.084C741.25 127.889 737.274 126.413 733.259 125.035C729.244 123.657 725.345 122.082 721.407 120.563C717.469 119.044 713.723 117.343 709.881 115.698C706.039 114.052 702.312 112.281 698.567 110.551C668.715 96.4191 640.419 80.684 612.123 64.963L590.992 53.1933C583.904 49.2841 576.835 45.3608 569.496 41.7189C562.158 38.0769 554.763 34.4911 547.329 30.9476C539.894 27.404 532.691 23.5371 524.642 20.8513C516.651 18.0531 508.106 16.1974 499.323 15.3531C494.941 14.9501 490.523 14.7856 486.107 14.8609C481.689 14.8609 477.271 15.2968 472.872 15.6905C455.279 17.4178 438.174 21.1818 422.197 26.8416C406.266 32.5687 391.335 39.6788 377.726 48.0186C363.972 56.2166 351.351 65.3707 338.711 74.4827C313.527 92.763 289.016 111.676 261.546 128.185C234.252 144.842 204.783 159.49 173.565 171.917L170.665 173.098L167.687 174.195L161.502 176.473C157.506 177.879 153.587 179.426 149.553 180.775L137.374 184.727L131.304 186.695L125.08 188.453L112.671 191.941C108.502 193.065 104.257 194.008 100.05 195.048C91.6744 197.228 83.0685 198.817 74.5202 200.56L71.3121 201.207C70.2364 201.404 69.1414 201.573 68.0657 201.742L61.5536 202.796C57.2122 203.457 52.9092 204.273 48.5294 204.807L35.4092 206.396C33.2001 206.635 31.0294 206.987 28.8203 207.141L22.2121 207.676C17.7939 208.013 13.3949 208.421 8.97666 208.702L-4.31645 209.222C-6.54478 209.293 -8.75389 209.405 -10.963 209.461L-17.5327 209.461L-30.9795 209.405Z" fill="url(#paint4_linear_1_531)" fill-opacity="0.5"/>
<path d="M-31.0949 218.095C4.75576 219.434 40.6827 216.981 75.5766 210.812C110.375 204.436 143.988 194.992 175.678 182.688C207.246 170.22 236.985 155.415 264.427 138.506L269.595 135.37L272.188 133.795L274.685 132.15L284.636 125.555C291.359 121.21 297.737 116.598 304.095 111.986C316.793 102.733 329.068 93.199 341.439 83.6793L360.015 69.4628C366.258 64.7522 372.52 60.0555 379.052 55.5557C391.96 46.4206 406.02 38.2 421.044 31.0039C436.144 23.8422 452.668 18.4348 470.029 14.9736C474.37 14.1486 478.75 13.4455 483.168 12.8643C487.611 12.2626 492.103 11.8727 496.615 11.6972C505.628 11.362 514.65 12.2292 523.24 14.2564C531.804 16.3202 539.859 19.3777 547.098 23.3122L568.882 34.8568C576.105 38.7379 583.251 42.7033 590.147 46.9218L610.701 59.5774C638.056 76.5359 665.219 93.6771 693.899 109.398C708.046 117.434 723.067 124.611 738.811 130.856C754.6 137.03 771.29 141.879 788.564 145.312C805.85 148.749 823.69 150.466 841.602 150.416C859.519 150.308 877.318 148.275 894.429 144.384C911.481 140.37 927.851 134.945 943.221 128.213C958.724 121.646 973.573 114.292 988.268 106.783C1002.96 99.2737 1017.45 91.4835 1033.39 85.3807C1049.34 79.2779 1066.53 74.7781 1084.53 73.9625C1102.53 73.147 1120.45 75.5656 1137.49 79.5872C1154.48 83.7874 1171.15 88.6456 1187.43 94.1412C1195.68 96.7286 1203.76 99.569 1211.91 102.297L1236.3 110.551C1252.59 116.021 1268.77 121.688 1285.27 126.821C1293.52 129.389 1301.84 131.822 1310.24 134.119C1314.43 135.258 1318.62 136.425 1322.86 137.494C1327.11 138.562 1331.3 139.701 1335.56 140.714C1352.53 144.937 1369.77 148.528 1387.23 151.471C1422.16 157.236 1458.31 159.655 1494 156.491C1458.37 159.683 1422.14 157.292 1387.22 151.555C1369.74 148.626 1352.48 145.05 1335.5 140.84C1331.24 139.828 1327.01 138.731 1322.79 137.634C1318.56 136.537 1314.37 135.398 1310.17 134.259C1301.75 131.995 1293.43 129.549 1285.19 126.975C1268.67 121.857 1252.54 116.218 1236.21 110.748L1211.79 102.522C1203.63 99.794 1195.56 96.8973 1187.32 94.3943C1171.03 88.9192 1154.36 84.0752 1137.37 79.8826C1120.35 75.9172 1102.45 73.3861 1084.55 74.3563C1066.64 75.3266 1049.41 79.6717 1033.64 85.7744C1017.87 91.8772 1003.31 99.6956 988.614 107.191C973.919 114.685 959.031 122.082 943.49 128.663C928.083 135.422 911.675 140.875 894.582 144.918C877.412 148.839 859.549 150.895 841.564 151.021C823.575 151.09 805.657 149.378 788.295 145.931C770.957 142.503 754.202 137.654 738.35 131.475C722.536 125.228 707.444 118.047 693.226 110.003C664.546 94.2256 637.384 77.0702 610.067 60.0836L589.532 47.428C582.674 43.2095 575.548 39.2442 568.402 35.3631L546.637 23.8184C539.469 19.9102 531.492 16.8672 523.009 14.8048C514.49 12.805 505.551 11.9383 496.615 12.2456C492.154 12.4247 487.714 12.8145 483.322 13.4127C478.929 13.9751 474.562 14.6736 470.221 15.5079C452.922 18.9301 436.454 24.3001 421.409 31.4257C406.403 38.5963 392.356 46.7886 379.455 55.8932C372.943 60.3789 366.661 65.0755 360.418 69.7722L341.823 83.9745C329.491 93.4943 317.158 103.014 304.441 112.267C298.063 116.879 291.667 121.477 284.943 125.822L274.954 132.417L272.457 134.062L269.883 135.637L264.696 138.773C237.205 155.654 207.422 170.426 175.813 182.857C144.099 195.166 110.459 204.609 75.6342 210.98C40.7103 217.096 4.76381 219.493 -31.0949 218.095Z" fill="url(#paint5_linear_1_531)" fill-opacity="0.5"/>
<path d="M-31.2679 226.799C4.91142 228.814 41.2988 226.894 76.7099 221.104C112.008 215.022 146.113 205.695 178.214 193.347C210.292 181 240.426 166.118 268.077 148.968L278.431 142.527C281.908 140.404 285.116 138.056 288.458 135.834L298.409 129.07C301.675 126.778 304.883 124.444 308.014 122.039C320.75 112.618 332.987 102.873 345.204 93.0582C357.421 83.2431 369.408 73.3718 381.702 63.6551C394.028 53.9169 407.291 44.8379 421.39 36.4878C435.578 28.1464 451.298 21.3064 468.088 16.1686C476.494 13.6437 485.193 11.6765 494.079 10.2908C502.95 8.7583 512.128 8.41996 521.165 9.29234C530.208 10.2404 538.901 12.5018 546.733 15.9436C550.641 17.6472 554.371 19.5601 557.894 21.6667L568.536 27.8398C575.624 31.9599 582.693 36.1362 589.532 40.4954C596.371 44.8545 602.979 49.4527 609.51 53.9806C635.866 72.1765 661.799 90.7099 689.211 108.034C702.965 116.64 716.758 125.274 732.03 132.389C747.204 139.606 763.476 145.505 780.515 149.966C797.574 154.422 815.387 157.143 833.457 158.052C851.517 158.932 869.655 157.789 887.244 154.663C891.681 154.03 895.946 152.891 900.287 151.963L903.515 151.232C904.59 150.964 905.647 150.669 906.703 150.388C908.836 149.84 910.93 149.221 913.043 148.602C921.42 146.113 929.609 143.297 937.573 140.165C953.464 133.804 968.826 126.761 983.581 119.072C998.488 111.563 1012.8 103.379 1028.45 96.6439C1044.11 89.9083 1061.11 84.5086 1079.13 82.9196C1088.16 82.1577 1097.28 82.2191 1106.29 83.1025C1115.28 84.0066 1124.14 85.4744 1132.78 87.4897C1150.07 91.4129 1166.65 96.9252 1183.21 102.297C1191.49 104.954 1199.73 107.711 1207.95 110.481L1232.62 118.819C1249.08 124.332 1265.48 129.984 1282.21 135.033C1298.95 140.081 1316.06 144.468 1333.31 148.504C1350.56 152.539 1368.06 155.985 1385.79 158.712C1421.2 164.154 1457.77 166.278 1493.81 163.24C1457.77 166.306 1421.2 164.225 1385.77 158.797C1368.04 156.083 1350.52 152.61 1333.25 148.63C1315.99 144.651 1298.87 140.278 1282.14 135.187C1265.41 130.097 1248.96 124.514 1232.48 119.016L1207.78 110.748C1199.56 107.936 1191.31 105.236 1183.02 102.578C1166.46 97.2205 1149.94 91.7364 1132.63 87.8273C1124 85.8308 1115.16 84.3725 1106.2 83.4681C1097.22 82.6012 1088.14 82.5492 1079.15 83.3134C1061.15 84.9164 1044.19 90.3443 1028.69 97.0236C1013.18 103.703 998.795 111.943 983.888 119.522C969.095 127.205 953.701 134.247 937.785 140.615C929.806 143.755 921.597 146.571 913.196 149.052C911.083 149.657 908.989 150.289 906.857 150.838C905.781 151.119 904.725 151.429 903.649 151.682L900.403 152.427C896.061 153.355 891.778 154.508 887.321 155.155C869.711 158.306 851.548 159.478 833.457 158.628C815.323 157.735 797.444 155.019 780.323 150.557C763.171 146.081 746.795 140.149 731.53 132.881C716.162 125.752 702.351 117.104 688.577 108.512C661.165 91.1318 635.251 72.5843 608.934 54.3743C602.345 49.8324 595.833 45.2342 588.994 40.8891C582.156 36.544 575.144 32.3677 568.056 28.2336L557.413 22.0464C553.922 19.9719 550.224 18.0918 546.349 16.4217C538.609 13.0051 530.014 10.7579 521.069 9.81262C512.098 8.93536 502.984 9.26417 494.175 10.7829C485.331 12.1583 476.672 14.1065 468.3 16.6045C451.61 21.7469 435.987 28.5771 421.889 36.8956C407.811 45.2175 394.567 54.2684 382.259 63.9785C369.888 73.653 357.825 83.5525 345.646 93.3535C333.467 103.155 321.153 112.899 308.379 122.307C305.19 124.655 301.963 126.989 298.774 129.338L288.804 136.101C285.442 138.323 282.234 140.671 278.758 142.795L268.384 149.221C240.687 166.346 210.515 181.204 178.406 193.529C146.272 205.847 112.142 215.145 76.8251 221.203C41.3682 226.96 4.94302 228.846 -31.2679 226.799Z" fill="url(#paint6_linear_1_531)" fill-opacity="0.5"/>
<path d="M-31.4214 235.532C5.09337 238.226 41.9566 236.803 77.8819 231.314C113.723 225.605 148.367 216.431 180.904 204.034C213.467 191.703 244.03 176.726 272.015 159.388L282.388 152.793L287.575 149.502C289.323 148.42 290.918 147.21 292.589 146.071L302.559 139.153L307.534 135.694L312.375 132.122C325.207 122.56 337.501 112.618 349.584 102.592C361.667 92.5664 373.519 82.2872 385.468 72.1346C391.557 67.1146 397.781 62.193 403.928 57.2292C410.075 52.2654 416.472 47.386 423.138 42.83C436.37 33.508 451.103 25.4002 467.013 18.686C474.989 15.3897 483.345 12.6135 491.986 10.3896C500.637 8.055 509.687 6.6024 518.879 6.0726C523.482 5.88252 528.099 6.0522 532.653 6.57881C537.199 7.1538 541.645 8.09704 545.907 9.39115C554.405 12.0433 562.205 15.7597 568.959 20.3734C583.028 28.9849 596.449 38.1479 609.165 47.8219C634.502 67.199 659.11 87.0682 685.139 105.939C697.989 115.454 711.539 124.449 725.729 132.881C740.114 141.163 755.798 148.159 772.447 153.721C789.095 159.29 806.729 163.12 824.832 165.097C842.954 167.083 861.394 166.921 879.445 164.619L886.149 163.62C888.397 163.269 890.645 163.002 892.834 162.495L899.423 161.089L902.727 160.414C903.822 160.161 904.898 159.88 905.993 159.613C914.681 157.466 923.176 154.92 931.427 151.991C947.802 146.019 963.546 139.161 978.529 131.475C993.705 123.98 1008 115.557 1023.35 108.189C1031 104.49 1039.01 101.2 1047.32 98.3458C1055.64 95.4991 1064.41 93.4026 1073.42 92.1023C1082.47 90.8775 1091.7 90.5981 1100.86 91.2727C1109.98 91.9767 1118.99 93.3284 1127.75 95.3085C1145.33 99.1895 1162.02 104.814 1178.69 110.34C1195.37 115.867 1212.08 121.407 1228.75 126.947L1253.73 135.272C1262.1 137.986 1270.52 140.643 1279.01 143.146C1295.99 148.195 1313.41 152.385 1330.87 156.224C1348.33 160.063 1366.2 163.339 1384.2 165.884C1420.16 171.232 1457.02 172.587 1493.54 169.906C1457.02 172.622 1420.14 171.294 1384.16 165.969C1366.18 163.438 1348.39 160.161 1330.82 156.365C1313.24 152.568 1295.83 148.349 1278.85 143.301C1270.34 140.812 1261.93 138.169 1253.55 135.441L1228.58 127.144C1211.89 121.618 1195.23 116.035 1178.5 110.58C1161.77 105.124 1145.12 99.4566 1127.56 95.6037C1118.79 93.6272 1109.79 92.2895 1100.66 91.6102C1091.56 90.934 1082.36 91.2181 1073.37 92.4539C1064.4 93.7628 1055.68 95.8591 1047.4 98.6973C1039.12 101.555 1031.13 104.844 1023.5 108.541C1008.13 115.909 993.916 124.332 978.721 131.855C963.694 139.548 947.905 146.411 931.484 152.385C923.245 155.347 914.757 157.921 906.07 160.091C904.994 160.358 903.899 160.653 902.804 160.892L899.5 161.581L892.873 162.988C890.669 163.458 888.431 163.839 886.169 164.127L879.426 165.139C861.309 167.467 842.797 167.648 824.602 165.673C806.416 163.696 788.698 159.862 771.967 154.283C755.246 148.712 739.492 141.702 725.038 133.402C710.799 124.939 697.209 115.907 684.332 106.347C658.322 87.4479 633.715 67.5505 608.416 48.1594C595.756 38.4884 582.385 29.33 568.363 20.7249C561.704 16.143 553.999 12.4499 545.6 9.81298C541.396 8.52058 537.008 7.57724 532.518 7.00064C528.016 6.47604 523.451 6.30165 518.898 6.48036C509.788 6.98493 500.817 8.40441 492.235 10.6989C483.595 12.9008 475.238 15.6582 467.263 18.9391C451.392 25.6256 436.691 33.7001 423.484 42.9847C416.799 47.5688 410.344 52.3217 404.274 57.3417C398.204 62.3618 391.884 67.1849 385.794 72.219C373.827 82.3716 361.974 92.5805 349.872 102.663C337.77 112.745 325.457 122.673 312.586 132.192L307.745 135.764L302.751 139.223L292.781 146.142C291.11 147.281 289.496 148.49 287.748 149.573L282.561 152.863L272.246 159.599C244.22 176.933 213.611 191.896 181 204.203C148.437 216.584 113.765 225.734 77.9011 231.412C41.9636 236.876 5.09265 238.266 -31.4214 235.532Z" fill="url(#paint7_linear_1_531)" fill-opacity="0.5"/>
<path d="M-31.5945 244.194C5.27142 247.578 42.637 246.662 79.111 241.48L82.5304 241.03L85.9305 240.454L92.6923 239.272C97.1874 238.457 101.721 237.754 106.139 236.868L119.451 233.915L126.098 232.438C128.326 231.96 130.459 231.285 132.648 230.723C141.331 228.346 150.11 226.167 158.524 223.284L171.26 219.206C175.428 217.716 179.539 216.169 183.689 214.636C216.716 202.238 247.719 187.143 276.107 169.639C283.118 165.209 290.034 160.681 296.968 156.196L316.889 141.979C329.855 132.291 342.207 122.152 354.232 111.831C366.258 101.51 377.995 90.9914 389.655 80.431C395.418 75.1157 401.488 69.9831 407.463 64.7803C413.437 59.5774 419.334 54.3464 425.692 49.3967C438.149 39.3079 451.974 30.1723 466.955 22.131C481.977 14.0444 498.909 8.05688 516.9 4.4694C525.956 2.73341 535.429 2.5076 544.62 3.80854C553.781 5.24242 562.37 8.19614 569.727 12.4424C573.393 14.5366 576.888 16.7857 580.196 19.178C583.577 21.4982 586.939 23.8325 590.262 26.2089C596.909 30.9477 603.401 35.8131 609.587 40.8753C633.964 61.3633 657.169 82.5543 681.719 102.888C694.052 113.012 706.481 123.108 719.928 132.417C733.366 141.757 748.298 149.873 764.398 156.589C780.492 163.318 797.833 168.306 815.88 171.396C833.954 174.426 852.577 175.3 871.031 173.984C873.317 173.801 875.641 173.689 877.927 173.449L884.747 172.564C889.279 171.991 893.768 171.245 898.194 170.328C907.147 168.61 915.907 166.391 924.396 163.691C941.379 158.223 957.646 151.633 972.996 144.004C980.68 140.254 988.249 136.34 995.702 132.263C1003.14 128.213 1010.47 124.065 1018.04 120.127C1025.56 116.142 1033.41 112.507 1041.56 109.244C1049.71 105.968 1058.36 103.405 1067.33 101.608C1076.34 99.8901 1085.66 99.193 1094.96 99.5409C1104.25 99.9357 1113.44 101.101 1122.37 103.014C1140.26 106.741 1157.1 112.562 1173.93 118.229C1190.76 123.896 1207.72 129.408 1224.6 135.019L1249.96 143.456C1258.43 146.202 1266.98 148.823 1275.63 151.316C1292.91 156.214 1310.54 160.438 1328.43 163.972C1346.3 167.614 1364.37 170.707 1382.62 173.07C1419.15 178.02 1456.44 179.199 1493.41 176.571C1456.44 179.234 1419.14 178.084 1382.6 173.154C1364.34 170.806 1346.26 167.726 1328.38 164.112C1310.47 160.577 1292.83 156.352 1275.53 151.457C1266.9 148.982 1258.34 146.367 1249.87 143.61L1224.49 135.272C1207.6 129.647 1190.62 124.191 1173.78 118.51C1156.93 112.829 1140.1 107.05 1122.26 103.352C1113.36 101.453 1104.19 100.302 1094.94 99.9206C1085.69 99.5791 1076.43 100.276 1067.47 101.988C1058.53 103.779 1049.92 106.342 1041.81 109.623C1033.68 112.88 1025.85 116.511 1018.35 120.493C1010.8 124.43 1003.46 128.578 996.048 132.642C988.633 136.706 981.045 140.643 973.323 144.412C957.961 152.051 941.673 158.64 924.665 164.098C916.194 166.838 907.447 169.095 898.501 170.848C894.034 171.78 889.5 172.532 884.92 173.098L878.062 173.984C875.757 174.237 873.432 174.349 871.127 174.532C852.6 175.869 833.899 175.009 815.745 171.987C797.62 168.896 780.201 163.899 764.033 157.152C747.858 150.409 732.855 142.26 719.351 132.881C705.904 123.53 693.399 113.448 681.047 103.352C656.497 82.9902 633.33 61.757 608.991 41.283C602.825 36.2349 596.351 31.4399 589.782 26.6307C586.452 24.2684 583.103 21.9247 579.735 19.5999C576.446 17.223 572.976 14.9836 569.343 12.8924C562.078 8.69134 553.594 5.76651 544.543 4.34289C535.462 3.05416 526.102 3.27032 517.15 4.97561C499.252 8.54437 482.401 14.4879 467.435 22.5106C452.47 30.5348 438.658 39.6514 426.211 49.7201C419.853 54.6698 413.975 59.9149 407.981 65.0896C401.988 70.2643 395.937 75.3969 390.155 80.7122C378.475 91.2586 366.738 101.805 354.674 112.084C342.611 122.363 330.163 132.544 317.254 142.232L297.295 156.421C290.341 160.906 283.425 165.448 276.395 169.878C247.957 187.356 216.908 202.423 183.842 214.791C179.693 216.31 175.582 217.87 171.414 219.361L158.658 223.425C150.245 226.237 141.37 228.473 132.764 230.85C130.574 231.412 128.442 232.073 126.213 232.551L119.547 234.027L106.235 236.938C101.759 237.838 97.2258 238.541 92.7883 239.343L86.0265 240.51L82.5688 241.157L79.1303 241.593C42.6415 246.736 5.26975 247.614 -31.5945 244.194Z" fill="url(#paint8_linear_1_531)" fill-opacity="0.5"/>
<path d="M-31.748 252.884C-13.1712 254.966 5.61095 255.907 24.402 255.696C43.1994 255.484 61.9409 254.139 80.4367 251.675C117.429 246.648 153.247 237.769 186.801 225.309C220.338 212.866 251.784 197.609 280.506 179.847C309.179 162.057 335.58 142.393 359.381 121.097C383.527 100.005 405.618 77.7591 429.246 56.4133C441.036 45.6842 454.015 35.6851 468.05 26.518C482.073 17.271 498.144 9.83868 515.575 4.53951C524.279 1.82513 533.59 0.30465 543.045 0.053811C552.556 0.00443366 561.918 1.78916 570.188 5.22852C574.282 6.96758 578.142 8.98756 581.714 11.2611C585.21 13.5813 588.495 16.042 591.76 18.5169C598.311 23.4526 604.689 28.5148 610.797 33.7458C616.906 38.9768 622.63 44.4468 628.317 49.9168L645.202 66.355C656.44 77.3653 667.658 88.4038 679.145 99.2736C690.633 110.143 702.428 120.844 714.856 131.152C727.224 141.489 741.245 150.7 756.618 158.586C772.036 166.438 788.94 172.597 806.794 176.866C824.648 181.123 843.343 183.185 862.118 182.969C880.905 182.663 899.488 180.054 917.096 175.249C934.697 170.432 951.538 164.242 967.329 156.786C975.244 153.102 982.985 149.193 990.535 145.115C998.084 141.037 1005.42 136.748 1012.89 132.572C1027.8 124.275 1043.46 116.274 1061.32 111.704C1065.77 110.569 1070.33 109.689 1074.96 109.075L1078.46 108.681L1081.97 108.442L1085.49 108.203L1089.02 108.203C1098.44 108.215 1107.82 109.132 1116.92 110.931C1135.16 114.432 1152.24 120.366 1169.22 126.216C1177.7 129.188 1186.23 132.061 1194.81 134.836L1220.53 143.273C1237.71 148.897 1254.71 154.719 1272.28 159.584C1281.04 162.045 1289.9 164.337 1298.87 166.376C1307.84 168.415 1316.91 170.215 1325.99 172.001C1344.17 175.474 1362.49 178.343 1381.11 180.522C1418.21 185.065 1455.97 186.062 1493.43 183.489C1455.97 186.09 1418.21 185.121 1381.09 180.607C1362.53 178.441 1344.13 175.587 1325.94 172.17C1316.85 170.412 1307.8 168.584 1298.81 166.545C1289.82 164.506 1281.04 162.13 1272.19 159.598C1254.59 154.747 1237.61 148.883 1220.32 143.329L1194.6 134.892C1186.02 132.08 1177.48 129.211 1168.97 126.286C1152.01 120.451 1134.91 114.531 1116.74 111.071C1107.67 109.316 1098.33 108.442 1088.95 108.47L1085.43 108.47L1081.93 108.709L1078.44 108.948L1074.98 109.342C1070.36 109.95 1065.82 110.829 1061.4 111.971C1043.65 116.527 1028.03 124.514 1013.14 132.811C1005.69 137.029 998.334 141.248 990.804 145.382C983.273 149.516 975.436 153.383 967.56 157.081C951.763 164.577 934.908 170.805 917.288 175.657C899.675 180.498 881.079 183.15 862.272 183.503C843.368 183.73 824.544 181.663 806.563 177.387C788.631 173.128 771.649 166.97 756.157 159.106C740.706 151.207 726.613 141.972 714.184 131.601C701.736 121.294 689.903 110.579 678.396 99.7095C666.89 88.8397 655.71 77.7872 644.472 66.7628L627.567 50.2684C621.901 44.7843 616.234 39.3002 610.106 34.0973C603.978 28.8945 597.658 23.8182 591.127 18.8825C587.861 16.4076 584.595 13.9468 581.118 11.6548C577.608 9.39796 573.805 7.39645 569.765 5.67852C561.612 2.28616 552.384 0.521157 543.006 0.560098C533.657 0.779 524.443 2.25668 515.825 4.91921C498.45 10.1933 482.436 17.6028 468.473 26.8274C454.45 35.9693 441.478 45.9399 429.688 56.6384C406.06 77.9982 383.912 100.23 359.727 121.322C335.878 142.611 309.433 162.266 280.717 180.044C251.96 197.8 220.474 213.043 186.897 225.464C153.307 237.904 117.456 246.759 80.4367 251.759C61.9401 254.217 43.1987 255.558 24.402 255.767C5.60827 255.954 -13.1739 254.99 -31.748 252.884Z" fill="url(#paint9_linear_1_531)" fill-opacity="0.5"/>
<defs>
<linearGradient id="paint0_linear_1_531" x1="-152.041" y1="11.7541" x2="62.753" y2="537.552" gradientUnits="userSpaceOnUse">
<stop stop-color="#E39D7E"/>
<stop offset="1" stop-color="#FFC8B0"/>
</linearGradient>
<linearGradient id="paint1_linear_1_531" x1="-152.192" y1="11.2378" x2="84.8564" y2="558.798" gradientUnits="userSpaceOnUse">
<stop stop-color="#E39D7E"/>
<stop offset="1" stop-color="#FFC8B0"/>
</linearGradient>
<linearGradient id="paint2_linear_1_531" x1="-152.369" y1="9.33645" x2="110.877" y2="580.368" gradientUnits="userSpaceOnUse">
<stop stop-color="#E39D7E"/>
<stop offset="1" stop-color="#FFC8B0"/>
</linearGradient>
<linearGradient id="paint3_linear_1_531" x1="-152.524" y1="6.50845" x2="139.543" y2="600.953" gradientUnits="userSpaceOnUse">
<stop stop-color="#E39D7E"/>
<stop offset="1" stop-color="#FFC8B0"/>
</linearGradient>
<linearGradient id="paint4_linear_1_531" x1="-152.902" y1="-0.0684071" x2="200.943" y2="637.349" gradientUnits="userSpaceOnUse">
<stop stop-color="#E39D7E"/>
<stop offset="1" stop-color="#FFC8B0"/>
</linearGradient>
<linearGradient id="paint5_linear_1_531" x1="-153.02" y1="-3.70197" x2="233.519" y2="652.971" gradientUnits="userSpaceOnUse">
<stop stop-color="#E39D7E"/>
<stop offset="1" stop-color="#FFC8B0"/>
</linearGradient>
<linearGradient id="paint6_linear_1_531" x1="-153.191" y1="-7.39246" x2="266.392" y2="666.559" gradientUnits="userSpaceOnUse">
<stop stop-color="#E39D7E"/>
<stop offset="1" stop-color="#FFC8B0"/>
</linearGradient>
<linearGradient id="paint7_linear_1_531" x1="-153.336" y1="-11.1133" x2="299.622" y2="678.213" gradientUnits="userSpaceOnUse">
<stop stop-color="#E39D7E"/>
<stop offset="1" stop-color="#FFC8B0"/>
</linearGradient>
<linearGradient id="paint8_linear_1_531" x1="-153.512" y1="-15.051" x2="333.117" y2="687.89" gradientUnits="userSpaceOnUse">
<stop stop-color="#E39D7E"/>
<stop offset="1" stop-color="#FFC8B0"/>
</linearGradient>
<linearGradient id="paint9_linear_1_531" x1="-153.679" y1="-18.8985" x2="366.398" y2="695.792" gradientUnits="userSpaceOnUse">
<stop stop-color="#E39D7E"/>
<stop offset="1" stop-color="#FFC8B0"/>
</linearGradient>
</defs>
</svg>
