<svg width="24" height="25" viewBox="0 0 24 25" fill="none" xmlns="http://www.w3.org/2000/svg">
<path fill-rule="evenodd" clip-rule="evenodd" d="M24 12.3203C24 18.9478 18.6275 24.3203 12 24.3203C5.37259 24.3203 0 18.9478 0 12.3203C0 5.6929 5.37259 0.320312 12 0.320312C18.6275 0.320312 24 5.6929 24 12.3203ZM6.12377 14.3203C6.04208 13.6651 6 12.9976 6 12.3203C6 11.643 6.04209 10.9755 6.1238 10.3203H2.20004C2.06887 10.9665 2 11.6354 2 12.3203C2 13.0052 2.06887 13.674 2.20004 14.3203H6.12377ZM6.50405 16.3203H2.83209C4.0096 19.0154 6.34063 21.091 9.20108 21.9234C7.96156 20.2739 7.03345 18.3771 6.50405 16.3203ZM8.57976 16.3203H15.4203C14.7623 18.5312 13.5728 20.5132 12 22.1183C10.4272 20.5132 9.23776 18.5312 8.57976 16.3203ZM15.8583 14.3203H8.14179C8.04836 13.6671 8 12.9994 8 12.3203C8 11.6413 8.04836 10.9735 8.14179 10.3203H15.8583C15.9516 10.9735 16 11.6413 16 12.3203C16 12.9994 15.9516 13.6671 15.8583 14.3203ZM17.8763 14.3203C17.9579 13.6651 18 12.9976 18 12.3203C18 11.643 17.9579 10.9755 17.8763 10.3203H21.8C21.9312 10.9665 22 11.6354 22 12.3203C22 13.0052 21.9312 13.674 21.8 14.3203H17.8763ZM17.496 16.3203H21.1679C19.9904 19.0154 17.6593 21.091 14.7989 21.9234C16.0384 20.2739 16.9665 18.3771 17.496 16.3203ZM12 2.52235C10.4272 4.12735 9.23776 6.10939 8.57976 8.32031H15.4203C14.7623 6.10939 13.5728 4.12735 12 2.52235ZM14.7989 2.71729C16.0384 4.3667 16.9665 6.26347 17.4959 8.32031H21.1679C19.9904 5.62529 17.6593 3.54958 14.7989 2.71729ZM2.83209 8.32031H6.50408C7.03348 6.26347 7.9616 4.3667 9.20111 2.71729C6.34064 3.54958 4.0096 5.62529 2.83209 8.32031Z" fill="#212121"/>
</svg>
