<svg width="110" height="25" viewBox="0 0 110 25" fill="none" xmlns="http://www.w3.org/2000/svg">
<path d="M34.0989 4.26356C33.6962 2.76446 32.5103 1.5786 31.0112 1.17586C28.3039 0.4375 17.4074 0.4375 17.4074 0.4375C17.4074 0.4375 6.51101 0.459875 3.80368 1.19824C2.30458 1.60098 1.11873 2.78683 0.715987 4.28593C-5.33452e-08 6.99326 0 12.654 0 12.654C0 12.654 -5.33452e-08 18.3148 0.738362 21.0445C1.1411 22.5436 2.32696 23.7295 3.82606 24.1322C6.53338 24.8706 17.4298 24.8706 17.4298 24.8706C17.4298 24.8706 28.3262 24.8706 31.0336 24.1322C32.5327 23.7295 33.7185 22.5436 34.1213 21.0445C34.8596 18.3372 34.8596 12.654 34.8596 12.654C34.8596 12.654 34.8373 6.99326 34.0989 4.26356Z" fill="#F5F6F7"/>
<path d="M22.9788 12.6541L13.9395 7.4184V17.8897L22.9788 12.6541Z" fill="black"/>
<path d="M50.5666 22.6554C49.873 22.1856 49.3808 21.4696 49.0899 20.4851C48.799 19.5006 48.6648 18.2029 48.6648 16.5695V14.3545C48.6648 12.7211 48.8214 11.3786 49.157 10.3942C49.4926 9.3873 50.0073 8.67131 50.7232 8.22382C51.4392 7.77633 52.3566 7.53021 53.4977 7.53021C54.6164 7.53021 55.5338 7.75395 56.205 8.22382C56.8763 8.69369 57.3909 9.40967 57.7041 10.3942C58.0174 11.3786 58.174 12.6987 58.174 14.3321V16.5472C58.174 18.1805 58.0174 19.4782 57.7041 20.4627C57.3909 21.4472 56.8986 22.1632 56.205 22.6331C55.5114 23.0806 54.5717 23.3267 53.4082 23.3267C52.2 23.349 51.2602 23.1029 50.5666 22.6554ZM54.4374 20.2614C54.6388 19.7691 54.7283 18.9413 54.7283 17.8225V13.0567C54.7283 11.9604 54.6388 11.1549 54.4374 10.6627C54.236 10.148 53.9004 9.90191 53.4306 9.90191C52.9607 9.90191 52.6475 10.148 52.4461 10.6627C52.2447 11.1773 52.1552 11.9604 52.1552 13.0567V17.8225C52.1552 18.9413 52.2447 19.7691 52.4237 20.2614C52.6027 20.7536 52.9383 20.9997 53.4306 20.9997C53.9004 20.9997 54.236 20.7536 54.4374 20.2614ZM103.483 16.6143V17.3974L103.572 19.6125C103.639 20.1047 103.751 20.4627 103.93 20.6865C104.109 20.9102 104.4 21.0221 104.78 21.0221C105.295 21.0221 105.653 20.8207 105.832 20.418C106.033 20.0152 106.123 19.344 106.145 18.4266L109.121 18.6056C109.143 18.7399 109.143 18.9189 109.143 19.1426C109.143 20.5522 108.763 21.6038 107.98 22.2974C107.197 22.9911 106.123 23.3491 104.713 23.3491C103.013 23.3491 101.827 22.8121 101.156 21.7605C100.484 20.7088 100.126 19.0531 100.126 16.838V14.1307C100.126 11.8485 100.484 10.1704 101.178 9.1188C101.894 8.0672 103.102 7.53021 104.803 7.53021C105.988 7.53021 106.883 7.75395 107.51 8.17907C108.136 8.60419 108.584 9.27543 108.852 10.1928C109.121 11.1101 109.233 12.3631 109.233 13.9741V16.5919H103.483V16.6143ZM103.93 10.1704C103.751 10.3942 103.639 10.7298 103.572 11.222C103.505 11.7143 103.483 12.4526 103.483 13.4595V14.5558H105.989V13.4595C105.989 12.475 105.966 11.7366 105.899 11.222C105.832 10.7074 105.72 10.3494 105.541 10.148C105.362 9.94666 105.094 9.83479 104.736 9.83479C104.355 9.85717 104.087 9.96904 103.93 10.1704ZM42.1985 16.3234L38.283 2.18268H41.7063L43.0711 8.58181C43.4291 10.1704 43.6752 11.5129 43.8542 12.6092H43.9437C44.0556 11.8038 44.3241 10.4837 44.7268 8.60419L46.1364 2.18268H49.5598L45.5995 16.3011V23.0806H42.2209V16.3234H42.1985Z" fill="#F5F6F7"/>
<path d="M69.2718 7.82111V23.103H66.5868L66.296 21.2235H66.2288C65.4905 22.6331 64.3941 23.3491 62.9398 23.3491C61.9329 23.3491 61.1722 23.0135 60.7023 22.3422C60.2101 21.671 59.9863 20.6418 59.9863 19.2322V7.82111H63.432V19.0308C63.432 19.702 63.4991 20.1943 63.6558 20.4851C63.8124 20.776 64.0585 20.9102 64.3941 20.9102C64.685 20.9102 64.9759 20.8207 65.2444 20.6418C65.5129 20.4628 65.7142 20.2166 65.8485 19.9481V7.82111H69.2718Z" fill="#F5F6F7"/>
<path d="M86.9254 7.82111V23.103H84.2404L83.9495 21.2235H83.8824C83.144 22.6331 82.0477 23.3491 80.5933 23.3491C79.5865 23.3491 78.8257 23.0135 78.3559 22.3422C77.8636 21.671 77.6399 20.6418 77.6399 19.2322V7.82111H81.0856V19.0308C81.0856 19.702 81.1527 20.1943 81.3093 20.4851C81.4659 20.776 81.7121 20.9102 82.0477 20.9102C82.3386 20.9102 82.6294 20.8207 82.8979 20.6418C83.1664 20.4628 83.3678 20.2166 83.502 19.9481V7.82111H86.9254Z" fill="#F5F6F7"/>
<path d="M78.6244 4.95716H75.2011V23.103H71.8449V4.95716H68.4216V2.18271H78.6021V4.95716H78.6244ZM98.2917 10.2599C98.0904 9.29783 97.7547 8.60422 97.2849 8.15673C96.815 7.73161 96.1885 7.50786 95.3606 7.50786C94.7342 7.50786 94.13 7.68686 93.5931 8.04485C93.0337 8.40285 92.6309 8.87271 92.3177 9.45445H92.2953V1.3996H88.9839V23.0806H91.8255L92.1835 21.6262H92.2506C92.5191 22.1409 92.9218 22.5436 93.4364 22.8568C93.9781 23.1536 94.5864 23.3076 95.204 23.3043C96.3675 23.3043 97.2177 22.7673 97.7771 21.6934C98.3141 20.6194 98.605 18.9413 98.605 16.6814V14.265C98.605 12.5645 98.4931 11.222 98.2917 10.2599ZM95.1369 16.5025C95.1369 17.6212 95.0922 18.4938 95.0027 19.1203C94.9132 19.7468 94.7565 20.1943 94.5328 20.4628C94.309 20.7313 94.0182 20.8655 93.6602 20.8655C93.3693 20.8655 93.1232 20.7984 92.8771 20.6641C92.6309 20.5299 92.4519 20.3285 92.2953 20.06V11.3787C92.4072 10.9536 92.6086 10.6179 92.8994 10.3494C93.1903 10.0809 93.4812 9.94669 93.8168 9.94669C94.1748 9.94669 94.4433 10.0809 94.6223 10.3494C94.8237 10.6179 94.9355 11.0878 95.025 11.7367C95.0922 12.3855 95.1369 13.3029 95.1369 14.5111V16.5025Z" fill="#F5F6F7"/>
</svg>
